<?xml version="1.0" encoding="utf-8"?>
<!-- Generator: Adobe Illustrator 24.1.2, SVG Export Plug-In . SVG Version: 6.00 Build 0)  -->
<svg version="1.1" id="Ebene_1" xmlns="http://www.w3.org/2000/svg" xmlns:xlink="http://www.w3.org/1999/xlink" x="0px" y="0px"
	 viewBox="0 0 400 300" style="enable-background:new 0 0 400 300;" xml:space="preserve">
<style type="text/css">
	.st0{fill:#EDD8C1;}
	.st1{fill:none;stroke:#EDD8C1;stroke-width:2;stroke-miterlimit:10;}
	.st2{fill:none;}
	.st3{fill:#E6B208;}
	.st4{fill:#E6B208;stroke:#EDD8C1;stroke-miterlimit:10;}
</style>
<circle class="st0" cx="124" cy="79.6" r="9.8"/>
<g>
	<path class="st0" d="M86.9,62.3c0.5,0,0.9-0.1,1.1-0.2c0.2-0.1,0.3-0.3,0.4-0.5c0.1-0.2,0.1-0.6,0.1-1.2v-6.7
		c-0.8,0-1.3,0.1-1.6,0.2c-0.3,0.1-0.5,0.2-0.6,0.5c-0.1,0.3-0.2,0.7-0.3,1.4l-1,0.1c0.1-0.9,0.2-2,0.2-3.1l0.2-0.1l1.4,0.2h5
		l1.5-0.2l0.2,0.1c0,1.1,0.1,2.1,0.2,3l-1,0.1c-0.1-0.7-0.2-1.2-0.3-1.5c-0.1-0.3-0.3-0.4-0.6-0.5s-0.8-0.1-1.5-0.2
		c-0.1,0.7-0.1,1.8-0.2,3.3c0,1.5-0.1,2.9-0.1,4.1c0,0.4,0.1,0.7,0.2,0.8s0.4,0.2,0.7,0.2c0.3,0,0.6,0,0.9,0l0.1,0.1l-0.1,0.9
		c-1,0-1.9-0.1-2.5-0.1c-0.7,0-1.5,0-2.4,0.1L86.9,62.3z"/>
	<path class="st0" d="M97.8,63.1l0-0.7c0.4,0,0.7-0.1,0.9-0.1c0.1-0.1,0.2-0.2,0.2-0.3c0-0.1,0-0.3-0.1-0.5l-0.3-1
		c-0.2,0-0.6,0-1.3,0c-0.3,0-0.8,0-1.3,0.1l-0.4,1c-0.1,0.2-0.1,0.3-0.1,0.4c0,0.2,0.1,0.3,0.2,0.3s0.3,0.1,0.5,0.1h0.6l0.1,0.1
		l-0.1,0.7c-0.1,0-0.4,0-0.8,0c-0.4,0-0.8,0-1.1,0c-0.4,0-0.7,0-1,0c-0.3,0-0.5,0-0.6,0l0.1-0.8c0.2,0,0.4-0.1,0.5-0.2
		s0.3-0.3,0.4-0.6l2.4-6.3l1.7-0.2l0.1,0c0.1,0.5,0.4,1.4,0.8,2.9s0.8,2.7,1.1,3.6c0.1,0.3,0.2,0.5,0.4,0.6c0.2,0.1,0.4,0.2,0.7,0.2
		l0,0.1l-0.1,0.7c-0.1,0-0.3,0-0.6,0c-0.3,0-0.6,0-0.9,0c-0.4,0-0.9,0-1.3,0C98.3,63.2,98,63.2,97.8,63.1L97.8,63.1z M96.2,54
		l-0.4-0.4c0.5-0.5,1-1.1,1.5-1.7c0.5-0.6,0.8-0.9,1-1.1l0.2,0l0.7,0.8l0,0.2c-0.2,0.1-0.5,0.4-1.1,0.8s-1.1,0.9-1.7,1.4L96.2,54z
		 M97.3,59.6c0.4,0,0.8,0,1.1,0l-0.8-2.9h-0.2l-1,2.9H97.3z"/>
	<path class="st0" d="M103.2,63.2c-0.4,0-0.6,0.1-0.8,0.1l0.1-0.8c0.4-0.1,0.7-0.2,0.8-0.3c0.1-0.1,0.2-0.4,0.2-0.7l0-4.9
		c0-0.2,0-0.4-0.1-0.5c-0.1-0.1-0.2-0.1-0.3-0.1l-0.4,0l-0.1-0.1l0.1-0.7c0.1,0,0.4,0,0.7,0s0.7,0,1,0c0.3,0,0.7,0,1.1,0
		c0.4,0,0.7,0,0.8,0c0.9,0,1.6,0.2,2,0.5c0.5,0.3,0.7,0.8,0.7,1.4c0,0.5-0.1,0.9-0.4,1.2s-0.6,0.6-1,0.7c0.5,0.1,0.9,0.3,1.3,0.6
		s0.6,0.7,0.6,1.2c0,0.5-0.1,0.9-0.4,1.3c-0.3,0.4-0.7,0.7-1.2,0.9c-0.5,0.2-1.1,0.3-1.7,0.3c-0.1,0-0.4,0-0.8-0.1
		c-0.5,0-0.9-0.1-1.1-0.1C104,63.1,103.6,63.1,103.2,63.2z M105,61.5c0,0.3,0.1,0.5,0.3,0.6c0.2,0.1,0.5,0.2,1,0.2
		c0.5,0,0.8-0.1,1.1-0.3s0.4-0.6,0.4-1c0-0.4-0.1-0.7-0.4-0.9c-0.2-0.2-0.6-0.4-1.1-0.5h-1.3L105,61.5z M105.7,58.6
		c0.3,0,0.5,0,0.7,0c0,0,0.1,0,0.3-0.1c0.2-0.1,0.4-0.3,0.5-0.5s0.2-0.5,0.2-0.8c0-0.4-0.2-0.8-0.5-1c-0.3-0.2-0.8-0.3-1.5-0.3
		c-0.1,0-0.1,0-0.2,0c0,0,0,0.1-0.1,0.2c-0.1,0.6-0.1,1.4-0.1,2.4C105.2,58.6,105.4,58.6,105.7,58.6z"/>
	<path class="st0" d="M112.5,62.8c-0.6-0.3-1-0.8-1.3-1.4c-0.3-0.6-0.5-1.3-0.5-2.1c0-0.9,0.2-1.6,0.6-2.3c0.4-0.7,0.9-1.2,1.5-1.5
		c0.7-0.4,1.4-0.6,2.2-0.6c1.2,0,2.1,0.3,2.8,1s1,1.6,1,2.8c0,0.9-0.2,1.6-0.6,2.3c-0.4,0.7-0.9,1.2-1.6,1.6
		c-0.7,0.4-1.4,0.6-2.3,0.6C113.8,63.2,113.1,63.1,112.5,62.8z M116.5,61.5c0.4-0.5,0.6-1.2,0.6-2.1c0-1.1-0.2-1.9-0.6-2.5
		c-0.4-0.6-1-0.9-1.8-0.9c-0.7,0-1.2,0.2-1.6,0.7c-0.4,0.5-0.6,1.2-0.6,2.1c0,1.1,0.2,1.9,0.6,2.5c0.4,0.6,1,0.9,1.7,0.9
		C115.6,62.3,116.1,62,116.5,61.5z"/>
	<path class="st0" d="M125,62.1l-1.2-2.2h-1l0,1.5c0,0.3,0,0.5,0.1,0.6c0,0.1,0.1,0.2,0.2,0.3s0.3,0.1,0.6,0.1l0,0.1l-0.1,0.7
		c-0.1,0-0.4,0-0.8,0c-0.4,0-0.7,0-1.1,0c-0.3,0-0.6,0-0.9,0c-0.3,0-0.5,0-0.6,0l0.1-0.8c0.4-0.1,0.6-0.1,0.8-0.3s0.2-0.4,0.2-0.7
		l0-4.9c0-0.2,0-0.4-0.1-0.5c-0.1-0.1-0.2-0.1-0.3-0.1l-0.5,0l-0.1-0.1l0.1-0.7c0.1,0,0.3,0,0.7,0c0.3,0,0.6,0,0.9,0
		c0.3,0,0.7,0,1.1,0c0.4,0,0.6,0,0.8,0c0.9,0,1.7,0.2,2.2,0.6c0.5,0.4,0.8,0.9,0.8,1.5c0,0.5-0.2,0.9-0.5,1.4
		c-0.3,0.4-0.8,0.8-1.4,1l1.2,1.9c0.3,0.4,0.5,0.7,0.7,0.8c0.2,0.2,0.5,0.2,0.8,0.2l0.1,0.1l-0.1,0.6l-1.4,0.1
		C125.8,63.3,125.4,62.9,125,62.1z M125.2,57.4c0-0.5-0.2-0.8-0.5-1.1c-0.3-0.2-0.9-0.4-1.6-0.4c-0.1,0-0.1,0-0.2,0.1
		c0,0,0,0.1,0,0.2c-0.1,1.2-0.1,2.1-0.1,2.6L124,59C124.8,58.7,125.2,58.2,125.2,57.4z"/>
</g>
<g>
	<path class="st0" d="M178.9,298.7l-3-0.1c4.4-170.3-22.7-277.4-23-278.5l2.9-0.7C156.1,20.5,183.3,127.9,178.9,298.7z"/>
</g>
<circle class="st0" cx="153.9" cy="243.5" r="6.9"/>
<g>
	<path class="st0" d="M85.7,231.9c-0.4-0.1-0.7-0.2-1-0.3s-0.4-0.2-0.4-0.2l-0.1-0.2c0-0.1,0-0.2,0.1-0.5c0-0.2,0.1-0.6,0.1-1
		c0-0.4,0.1-0.9,0.1-1.3l1-0.1c0,0.7,0.1,1.2,0.2,1.6s0.3,0.6,0.6,0.7s0.7,0.2,1.2,0.2c0.6,0,1.1-0.1,1.4-0.4s0.5-0.7,0.5-1.1
		c0-0.4-0.2-0.7-0.5-1c-0.3-0.3-0.9-0.6-1.6-0.9c0,0-0.1-0.1-0.3-0.2c-0.8-0.4-1.4-0.8-1.9-1.2c-0.5-0.4-0.7-0.9-0.7-1.6
		c0-0.6,0.2-1.1,0.5-1.6c0.3-0.5,0.8-0.8,1.4-1.1c0.6-0.3,1.3-0.4,2-0.4c0.4,0,0.8,0,1.2,0.1c0.4,0.1,0.7,0.1,0.9,0.2
		c0.2,0.1,0.4,0.1,0.4,0.1L91,222c0,0.1-0.1,0.5-0.2,1c-0.1,0.5-0.1,1.1-0.2,1.7l-0.9,0.1l-0.1-0.1c0,0,0-0.1,0-0.3
		c0-0.1,0-0.3,0-0.5c0-0.5-0.1-0.9-0.4-1.1s-0.7-0.3-1.4-0.3c-0.5,0-1,0.1-1.3,0.4c-0.3,0.3-0.5,0.6-0.5,1c0,0.4,0.2,0.7,0.5,1
		s0.9,0.6,1.6,1c0.6,0.3,1.1,0.6,1.5,0.8c0.4,0.2,0.7,0.5,1,0.9c0.3,0.4,0.4,0.8,0.4,1.2c0,0.6-0.2,1.2-0.5,1.6
		c-0.3,0.5-0.8,0.9-1.5,1.1S87.8,232,87,232C86.5,232,86.1,232,85.7,231.9z"/>
	<path class="st0" d="M94.3,231.5c-0.6-0.3-1-0.8-1.3-1.4c-0.3-0.6-0.5-1.3-0.5-2.1c0-0.9,0.2-1.6,0.6-2.3c0.4-0.7,0.9-1.2,1.5-1.5
		c0.7-0.4,1.4-0.6,2.2-0.6c1.2,0,2.1,0.3,2.8,1s1,1.6,1,2.8c0,0.9-0.2,1.6-0.6,2.3s-0.9,1.2-1.6,1.6c-0.7,0.4-1.4,0.6-2.3,0.6
		C95.6,232,94.9,231.8,94.3,231.5z M98.3,230.3c0.4-0.5,0.6-1.2,0.6-2.1c0-1.1-0.2-1.9-0.6-2.5s-1-0.9-1.8-0.9
		c-0.7,0-1.2,0.2-1.6,0.7c-0.4,0.5-0.6,1.2-0.6,2.1c0,1.1,0.2,1.9,0.6,2.5s1,0.9,1.7,0.9C97.3,231,97.9,230.8,98.3,230.3z"/>
	<path class="st0" d="M102.8,231.9c-0.4,0-0.6,0.1-0.8,0.1l0.1-0.8c0.4-0.1,0.7-0.2,0.8-0.3c0.1-0.1,0.2-0.4,0.2-0.7l0-4.9
		c0-0.2,0-0.4-0.1-0.5c-0.1-0.1-0.2-0.1-0.3-0.1l-0.4,0l-0.1-0.1l0.1-0.7c0.1,0,0.4,0,0.7,0s0.7,0,1,0c0.3,0,0.7,0,1.1,0
		c0.4,0,0.7,0,0.8,0c0.9,0,1.6,0.2,2,0.5c0.5,0.3,0.7,0.8,0.7,1.4c0,0.5-0.1,0.9-0.4,1.2s-0.6,0.6-1,0.7c0.5,0.1,0.9,0.3,1.3,0.6
		c0.4,0.3,0.6,0.7,0.6,1.2c0,0.5-0.1,0.9-0.4,1.3c-0.3,0.4-0.7,0.7-1.2,0.9c-0.5,0.2-1.1,0.3-1.7,0.3c-0.1,0-0.4,0-0.8-0.1
		c-0.5,0-0.9-0.1-1.1-0.1C103.5,231.9,103.1,231.9,102.8,231.9z M104.5,230.3c0,0.3,0.1,0.5,0.3,0.6c0.2,0.1,0.5,0.2,1,0.2
		c0.5,0,0.8-0.1,1.1-0.3s0.4-0.6,0.4-1c0-0.4-0.1-0.7-0.4-0.9c-0.2-0.2-0.6-0.4-1.1-0.5h-1.3L104.5,230.3z M105.2,227.4
		c0.3,0,0.5,0,0.7,0c0,0,0.1,0,0.3-0.1c0.2-0.1,0.4-0.3,0.5-0.5s0.2-0.5,0.2-0.8c0-0.4-0.2-0.8-0.5-1c-0.3-0.2-0.8-0.3-1.5-0.3
		c-0.1,0-0.1,0-0.2,0c0,0,0,0.1-0.1,0.2c-0.1,0.6-0.1,1.4-0.1,2.4C104.7,227.3,104.9,227.3,105.2,227.4z"/>
	<path class="st0" d="M110.5,231.2c0.4,0,0.6-0.1,0.8-0.3c0.1-0.2,0.2-0.4,0.2-0.8l0-4.8c0-0.3,0-0.4-0.1-0.5
		c-0.1-0.1-0.2-0.1-0.4-0.1l-0.4,0l-0.1-0.1l0.1-0.7c0.1,0,0.4,0,0.9,0c0.4,0,0.9,0,1.4,0c1.8,0,3.2,0,4-0.1l0.1,0.1
		c0,0.1-0.1,0.4-0.1,0.8c-0.1,0.4-0.1,0.9-0.2,1.4l-1,0.1c0,0,0-0.1,0-0.2s0-0.2,0-0.3c0-0.3,0-0.4-0.1-0.5
		c-0.1-0.1-0.2-0.2-0.5-0.2c-0.2,0-0.6-0.1-1.2-0.1c-0.2,0-0.4,0-0.5,0c-0.1,0-0.2,0.1-0.2,0.1c0,0.1,0,0.1,0,0.3l-0.1,2.1l1.2,0
		c0.2,0,0.5,0,0.8-0.1c0.4,0,0.6-0.1,0.7-0.1l0.1,0.1l-0.2,1c-0.1,0-0.3,0-0.7,0c-0.3,0-0.7,0-1.1,0c-0.3,0-0.6,0-1,0.1
		c0,0.7,0,1.3,0,1.9c0,0.2,0,0.4,0.1,0.5c0,0.1,0.1,0.2,0.2,0.2s0.3,0,0.6,0c0.6,0,1.1,0,1.3-0.1c0.3-0.1,0.5-0.2,0.6-0.4
		c0.1-0.2,0.2-0.5,0.3-1l0.9-0.1l0.1,0.1c0,0.1-0.1,0.4-0.2,0.9c-0.1,0.4-0.1,0.9-0.2,1.4l-0.1,0.1c-0.3,0-0.9,0-1.8,0
		c-0.9,0-1.7,0-2.3,0c-0.5,0-0.9,0-1.3,0.1c-0.4,0-0.7,0.1-0.8,0.1L110.5,231.2z M112.8,221.8c-0.5-0.5-1-1-1.4-1.5l0.4-0.5l0.2,0
		c0.7,0.5,1.3,1,2,1.5c0,0,0.2-0.1,0.4-0.3c0.1-0.1,0.3-0.2,0.6-0.5c0.3-0.2,0.7-0.5,1-0.8l0.2,0l0.4,0.5c-0.5,0.5-1,1-1.4,1.5
		s-0.8,0.9-1,1h-0.3C113.6,222.6,113.3,222.3,112.8,221.8z"/>
	<path class="st0" d="M119.8,231.9c-0.3-0.1-0.6-0.1-0.8-0.2c-0.2-0.1-0.3-0.1-0.4-0.1l-0.1-0.2c0-0.1,0-0.2,0.1-0.4
		s0.1-0.5,0.1-0.8c0-0.3,0-0.7,0-1l0.9-0.1c0,0.5,0,0.9,0.1,1.1c0.1,0.3,0.2,0.4,0.5,0.5c0.2,0.1,0.5,0.2,0.9,0.2
		c0.5,0,0.8-0.1,1.1-0.3s0.4-0.4,0.4-0.8c0-0.2-0.1-0.4-0.3-0.6c-0.2-0.2-0.4-0.3-0.6-0.4c-0.2-0.1-0.6-0.3-1.1-0.5
		c-0.7-0.3-1.2-0.6-1.6-1c-0.4-0.3-0.5-0.7-0.5-1.3c0-0.5,0.1-0.9,0.4-1.3c0.3-0.4,0.7-0.7,1.2-0.9s1.1-0.3,1.7-0.3
		c0.4,0,0.7,0,1,0.1c0.3,0,0.6,0.1,0.8,0.1s0.3,0.1,0.4,0.1l0.1,0.2c0,0.1-0.1,0.4-0.1,0.8c-0.1,0.4-0.1,0.9-0.2,1.3l-0.8,0.1
		l-0.1-0.1c0,0,0-0.1,0-0.2c0-0.1,0-0.2,0-0.3c0-0.4-0.1-0.7-0.3-0.8c-0.2-0.2-0.6-0.2-1.1-0.2c-0.4,0-0.7,0.1-1,0.3
		s-0.4,0.4-0.4,0.7c0,0.3,0.1,0.5,0.4,0.7c0.3,0.2,0.7,0.4,1.3,0.7c0.5,0.2,0.9,0.4,1.2,0.6c0.3,0.2,0.6,0.4,0.8,0.7
		c0.2,0.3,0.3,0.6,0.3,1c0,0.5-0.1,0.9-0.4,1.3c-0.3,0.4-0.7,0.7-1.2,0.9c-0.5,0.2-1.2,0.3-1.9,0.3C120.5,232,120.2,232,119.8,231.9
		z"/>
	<path class="st0" d="M126.2,231.2c0.3,0,0.6-0.1,0.7-0.3c0.1-0.2,0.2-0.4,0.2-0.8l0-4.8c0-0.3,0-0.4-0.1-0.5
		c-0.1-0.1-0.2-0.1-0.4-0.1l-0.4,0l-0.1-0.1l0.1-0.7c0.2,0,0.4,0,0.5,0l1.2,0c0.2,0,0.6,0,1,0s0.7,0,0.8-0.1l-0.1,0.8
		c-0.3,0-0.5,0.1-0.6,0.1c-0.1,0.1-0.2,0.2-0.2,0.3c0,0.1-0.1,0.3-0.1,0.6c-0.1,1.3-0.2,2.9-0.2,4.6c0,0.3,0.1,0.6,0.2,0.7
		c0.1,0.1,0.4,0.1,0.7,0.1c0.5,0,0.8,0,1-0.1c0.2-0.1,0.4-0.3,0.5-0.5c0.1-0.3,0.2-0.7,0.3-1.2l0.9-0.1l0.1,0.1c0,0.1-0.1,0.5-0.1,1
		c-0.1,0.5-0.1,1.1-0.2,1.7l-0.1,0.1c-0.2,0-0.8,0-1.6-0.1c-0.8,0-1.5,0-2.1,0c-0.5,0-0.9,0-1.3,0.1c-0.4,0-0.7,0.1-0.8,0.1
		L126.2,231.2z"/>
	<path class="st0" d="M137.3,231.9l0-0.7c0.4,0,0.7-0.1,0.9-0.1c0.1-0.1,0.2-0.2,0.2-0.3c0-0.1,0-0.3-0.1-0.5l-0.3-1
		c-0.2,0-0.6,0-1.3,0c-0.3,0-0.8,0-1.3,0.1l-0.4,1c-0.1,0.2-0.1,0.3-0.1,0.4c0,0.2,0.1,0.3,0.2,0.3c0.1,0.1,0.3,0.1,0.5,0.1h0.6
		l0.1,0.1l-0.1,0.7c-0.1,0-0.4,0-0.8,0s-0.8,0-1.1,0c-0.4,0-0.7,0-1,0c-0.3,0-0.5,0-0.6,0l0.1-0.8c0.2,0,0.4-0.1,0.5-0.2
		c0.1-0.1,0.3-0.3,0.4-0.6l2.4-6.3l1.7-0.2l0.1,0c0.1,0.5,0.4,1.4,0.8,2.9s0.8,2.7,1.1,3.6c0.1,0.3,0.2,0.5,0.4,0.6
		c0.2,0.1,0.4,0.2,0.7,0.2l0,0.1l-0.1,0.7c-0.1,0-0.3,0-0.6,0c-0.3,0-0.6,0-0.9,0c-0.4,0-0.9,0-1.3,0
		C137.7,231.9,137.5,231.9,137.3,231.9L137.3,231.9z M136.7,228.3c0.4,0,0.8,0,1.1,0l-0.8-2.9h-0.2l-1,2.9H136.7z"/>
	<path class="st0" d="M142.8,229.2c-0.4-1.5-0.8-2.7-1.2-3.8c-0.1-0.2-0.2-0.4-0.4-0.6c-0.2-0.1-0.4-0.2-0.7-0.2l0-0.1l0.1-0.7
		c0.1,0,0.3,0,0.7,0c0.3,0,0.6,0,1,0c0.4,0,0.8,0,1.2,0c0.5,0,0.8-0.1,0.9-0.1l0.1,0.1l0,0.7c-0.3,0-0.6,0.1-0.7,0.1
		c-0.1,0-0.2,0.1-0.3,0.1s-0.1,0.1-0.1,0.3c0,0.2,0.2,1,0.6,2.4c0.4,1.4,0.6,2.4,0.8,2.9h0.2c0.3-0.6,0.6-1.6,1.1-3s0.7-2.2,0.7-2.3
		c0-0.1-0.1-0.3-0.2-0.3c-0.1-0.1-0.3-0.1-0.6-0.1h-0.6l0-0.1l0.1-0.7c0.1,0,0.4,0,0.8,0s0.8,0,1.1,0s0.7,0,1,0s0.5,0,0.6,0
		l-0.1,0.8c-0.2,0-0.4,0.1-0.5,0.2c-0.1,0.1-0.2,0.2-0.3,0.5l-2.5,6.5l-1.8,0.3C143.5,231.6,143.2,230.6,142.8,229.2z"/>
</g>
<g>
	<path class="st0" d="M173.3,12.9c-0.5-0.1-0.9-0.1-1.2-0.1c-0.3,0-0.7,0-1,0.1c-0.4,0-0.6,0.1-0.8,0.1l0.1-0.8
		c0.5-0.1,0.8-0.2,0.9-0.4c0.1-0.2,0.2-0.5,0.2-0.9l0-6c0-0.3,0-0.5-0.1-0.6c-0.1-0.1-0.2-0.2-0.4-0.2c-0.1,0-0.2,0-0.3,0
		s-0.2,0-0.2,0L170.4,4l0.1-0.8c0.1,0,0.4,0,0.7,0s0.7,0,1,0c0.4,0,0.9,0,1.4,0c0.5,0,0.8,0,1,0c1,0,1.8,0.2,2.6,0.6
		c0.7,0.4,1.3,0.9,1.7,1.6c0.4,0.7,0.6,1.5,0.6,2.4c0,1-0.2,1.9-0.7,2.7c-0.5,0.8-1.1,1.4-1.9,1.9s-1.7,0.7-2.7,0.7
		C174.1,13,173.8,12.9,173.3,12.9z M173.2,4.2c-0.1,0-0.1,0.1-0.1,0.3l0,0.4c-0.1,3.1-0.2,5.1-0.2,5.9c0,0.3,0,0.6,0.1,0.8
		c0.1,0.2,0.2,0.3,0.5,0.4c0.2,0.1,0.6,0.1,1,0.1c1,0,1.8-0.3,2.3-1c0.5-0.7,0.8-1.7,0.8-2.9c0-1.3-0.3-2.3-1-2.9
		c-0.7-0.7-1.7-1-3-1C173.4,4.1,173.3,4.2,173.2,4.2z"/>
	<path class="st0" d="M180.5,14.1c-0.2-0.2-0.3-0.5-0.3-1l0.1-0.1c0.4,0.1,0.8,0.2,1.2,0.2c0.5,0,0.9-0.1,1.2-0.2
		c0.4-0.2,0.7-0.4,0.9-0.6c0.2-0.3,0.3-0.6,0.3-0.9c0-0.5-0.2-0.8-0.6-1c-0.4-0.2-1-0.3-1.9-0.3l-0.1-0.1l-0.1-0.7l1-0.2
		c0.4-0.2,0.7-0.4,0.9-0.7c0.2-0.3,0.3-0.6,0.3-0.9c0-0.3-0.1-0.5-0.3-0.7c-0.2-0.2-0.5-0.3-0.8-0.3c-0.3,0-0.6,0.1-0.9,0.2
		c-0.3,0.1-0.6,0.3-0.8,0.5l-0.2,0l-0.2-0.8c0.2-0.2,0.6-0.4,1.1-0.7c0.5-0.3,1-0.4,1.5-0.4c0.6,0,1.1,0.2,1.5,0.5
		c0.4,0.3,0.6,0.7,0.6,1.2c0,0.4-0.1,0.8-0.5,1.2c-0.3,0.4-0.7,0.7-1.2,0.9v0.1c0.7,0.2,1.2,0.4,1.5,0.7c0.3,0.3,0.5,0.7,0.5,1.2
		c0,0.5-0.2,1-0.6,1.6c-0.4,0.5-1,0.9-1.6,1.3s-1.3,0.5-2,0.5C180.9,14.4,180.7,14.3,180.5,14.1z"/>
</g>
<path class="st1" d="M153.9,243.5c0,0,78.7-44.4,157.4-57.1"/>
<g>
	<path class="st0" d="M207.6,198.2c0.4,0,0.7-0.1,0.8-0.2c0.2-0.1,0.3-0.2,0.4-0.5s0.1-0.5,0.1-0.9v-3.3c0-0.3-0.1-0.6-0.2-0.7
		c-0.1-0.1-0.3-0.2-0.6-0.2c-0.1,0-0.3,0-0.4,0c-0.2,0-0.3,0-0.3,0.1l-0.1-0.1l0.1-0.7c0.4,0,1-0.1,1.7-0.2c0.8-0.1,1.3-0.2,1.5-0.2
		s0.3-0.1,0.3-0.1l0.1,0.3c-0.2,0.2-0.3,0.3-0.4,0.5s-0.1,0.4-0.2,0.7c-0.1,1.2-0.1,2.7-0.1,4.2c0,0.4,0,0.7,0.1,0.8
		c0.1,0.1,0.3,0.2,0.6,0.2c0.2,0,0.3,0,0.5,0c0.1,0,0.2,0,0.3,0l0,0.1l-0.2,0.8c-0.1,0-0.4,0-0.8,0c-0.4,0-0.8,0-1.2,0
		c-0.4,0-0.8,0-1.2,0.1c-0.5,0-0.7,0.1-0.9,0.1L207.6,198.2z"/>
	<path class="st0" d="M212.7,200.1c-0.2-0.2-0.3-0.5-0.3-1l0.1-0.1c0.4,0.1,0.8,0.2,1.2,0.2c0.5,0,0.9-0.1,1.2-0.2
		c0.4-0.2,0.7-0.4,0.9-0.6c0.2-0.3,0.3-0.6,0.3-0.9c0-0.5-0.2-0.8-0.6-1s-1-0.3-1.9-0.3l-0.1-0.1l-0.1-0.7l1-0.2
		c0.4-0.2,0.7-0.4,0.9-0.7c0.2-0.3,0.3-0.6,0.3-0.9c0-0.3-0.1-0.5-0.3-0.7s-0.5-0.3-0.8-0.3c-0.3,0-0.6,0.1-0.9,0.2
		c-0.3,0.1-0.6,0.3-0.8,0.5l-0.2,0l-0.2-0.8c0.2-0.2,0.6-0.4,1.1-0.7c0.5-0.3,1-0.4,1.5-0.4c0.6,0,1.1,0.2,1.5,0.5
		c0.4,0.3,0.6,0.7,0.6,1.2c0,0.4-0.1,0.8-0.5,1.2c-0.3,0.4-0.7,0.7-1.2,0.9v0.1c0.7,0.2,1.2,0.4,1.5,0.7s0.5,0.7,0.5,1.2
		c0,0.5-0.2,1-0.6,1.6s-1,0.9-1.6,1.3s-1.3,0.5-2,0.5C213.1,200.4,212.8,200.3,212.7,200.1z"/>
	<path class="st0" d="M218.9,200.1c-0.2-0.2-0.3-0.5-0.3-1l0.1-0.1c0.4,0.1,0.9,0.2,1.2,0.2c0.7,0,1.3-0.2,1.8-0.5
		c0.5-0.3,0.7-0.8,0.7-1.3c0-0.3-0.1-0.6-0.3-0.8c-0.2-0.2-0.5-0.4-0.9-0.5c-0.4-0.2-1-0.3-1.8-0.4l-0.1-0.2
		c0.1-0.8,0.1-1.5,0.2-2.3c0-0.8,0.1-1.3,0.1-1.5l0.1-0.1l2.9-0.1c0.3,0,0.5-0.1,0.6-0.1s0.2-0.2,0.3-0.4l0.6-0.1l-0.4,2l-0.1,0.1
		c-0.2,0-0.6,0-1.2-0.1s-1.3-0.1-2-0.1l-0.1,1.7c1.2,0.2,2.1,0.6,2.7,0.9s0.9,0.9,0.9,1.6c0,0.6-0.2,1.1-0.7,1.7s-1,1-1.7,1.3
		c-0.7,0.3-1.3,0.5-2,0.5C219.3,200.4,219,200.3,218.9,200.1z"/>
</g>
<polyline class="st1" points="266.9,196.6 298.9,218.3 311.2,186.4 "/>
<g>
	<path class="st3" d="M278.5,165.6c0.5-0.1,0.8-0.3,1-0.5c0.2-0.2,0.3-0.5,0.3-1l0-6.9c0-0.4,0-0.6-0.1-0.7
		c-0.1-0.1-0.3-0.2-0.5-0.2l-0.5,0l-0.1-0.1l0.1-0.9l1,0c0.2,0,0.5,0,0.9,0c0.3,0,1.1,0,2.1-0.1l-0.1,0.9c-0.3,0.1-0.6,0.1-0.7,0.2
		c-0.1,0.1-0.2,0.2-0.3,0.4c-0.1,0.2-0.1,0.4-0.1,0.8l-0.1,2.6l2.6,0c0.6,0,1.4,0,2.3-0.1l0-2.9c0-0.4,0-0.6-0.1-0.7
		c-0.1-0.1-0.3-0.2-0.5-0.2c-0.2,0-0.3,0-0.5,0l-0.1-0.1l0.1-0.9l0.5,0l1.4,0c0.3,0,1.1,0,2.2-0.1l-0.1,0.9
		c-0.4,0.1-0.7,0.1-0.8,0.3c-0.1,0.1-0.2,0.4-0.2,0.7c-0.1,1.1-0.1,2.4-0.2,3.8c0,1.4-0.1,2.5-0.1,3.3c0,0.4,0.1,0.7,0.2,0.9
		c0.1,0.2,0.3,0.2,0.6,0.2c0.1,0,0.4,0,0.7-0.1l0.1,0.1l-0.2,0.9c-0.1,0-0.3,0-0.4,0c-0.8,0-1.5,0-1.9,0l-2.1,0l0.2-0.9
		c0.4,0,0.6-0.1,0.8-0.2c0.2-0.1,0.3-0.3,0.4-0.5c0.1-0.2,0.1-0.6,0.1-1.1v-2.4l-2.3,0c-0.3,0-0.6,0-1.1,0.1c-0.5,0-1,0.1-1.5,0.1
		l-0.1,2.8c0,0.5,0,0.8,0.1,0.9c0.1,0.2,0.3,0.2,0.6,0.2c0.1,0,0.3,0,0.7-0.1l0.1,0.1l-0.2,0.9c-0.2,0-0.4,0-0.8,0c-0.3,0-0.6,0-1,0
		c-0.5,0-1,0-1.6,0.1c-0.6,0-0.9,0.1-1.1,0.1L278.5,165.6z"/>
	<path class="st3" d="M291.3,165.6c0.4,0,0.6-0.2,0.7-0.3c0.1-0.2,0.2-0.4,0.2-0.8l0-5.2c0-0.3,0-0.5-0.1-0.6
		c-0.1-0.1-0.2-0.1-0.4-0.1l-0.4,0l-0.1-0.1l0.1-0.7c0.2,0,0.4,0,0.6,0l1.2,0c0.2,0,0.6,0,1.1,0s0.8,0,0.9-0.1l-0.1,0.9
		c-0.3,0-0.5,0.1-0.7,0.2s-0.2,0.2-0.3,0.3c0,0.1-0.1,0.3-0.1,0.6c-0.1,1.4-0.2,3.1-0.2,4.9c0,0.4,0.1,0.6,0.2,0.7
		c0.1,0.1,0.4,0.2,0.8,0.2c0.5,0,0.9,0,1.1-0.1c0.2-0.1,0.4-0.3,0.5-0.6c0.1-0.3,0.2-0.7,0.3-1.3l1-0.1l0.1,0.1
		c0,0.2-0.1,0.5-0.2,1.1c-0.1,0.6-0.2,1.2-0.2,1.8l-0.1,0.1c-0.3,0-0.8,0-1.6-0.1c-0.8,0-1.6-0.1-2.2-0.1c-0.5,0-1,0-1.4,0.1
		c-0.4,0-0.7,0.1-0.8,0.1L291.3,165.6z"/>
	<path class="st3" d="M303.1,166.3l0.1-0.7c0.5,0,0.8-0.1,0.9-0.2c0.1-0.1,0.2-0.2,0.2-0.3c0-0.1,0-0.3-0.1-0.5l-0.3-1.1
		c-0.2,0-0.7,0-1.3,0c-0.4,0-0.8,0-1.4,0.1l-0.4,1.1c-0.1,0.2-0.1,0.4-0.1,0.4c0,0.2,0.1,0.3,0.2,0.4c0.1,0.1,0.3,0.1,0.6,0.1h0.6
		l0.1,0.1l-0.1,0.8c-0.1,0-0.4,0-0.8-0.1c-0.4,0-0.8,0-1.2,0s-0.7,0-1,0c-0.3,0-0.5,0-0.6,0l0.1-0.8c0.2,0,0.4-0.1,0.6-0.2
		c0.1-0.1,0.3-0.4,0.4-0.7l2.6-6.7l1.8-0.2l0.2,0.1c0.1,0.5,0.4,1.5,0.9,3.1c0.4,1.5,0.8,2.8,1.2,3.8c0.1,0.3,0.2,0.6,0.4,0.7
		c0.2,0.1,0.4,0.2,0.8,0.2l0.1,0.1l-0.1,0.7c-0.1,0-0.3,0-0.7,0c-0.3,0-0.7,0-1,0c-0.5,0-0.9,0-1.4,0S303.3,166.4,303.1,166.3
		L303.1,166.3z M302.5,162.6c0.4,0,0.8,0,1.1-0.1l-0.9-3.1h-0.2l-1.1,3.1H302.5z"/>
	<path class="st3" d="M309,163.5c-0.5-1.6-0.9-2.9-1.3-4c-0.1-0.3-0.2-0.5-0.4-0.6s-0.4-0.2-0.7-0.2l-0.1-0.1l0.1-0.7
		c0.1,0,0.4,0,0.7,0c0.3,0,0.7,0,1,0c0.4,0,0.8,0,1.3-0.1c0.5,0,0.8-0.1,1-0.1l0.1,0.1l-0.1,0.7c-0.3,0-0.6,0.1-0.7,0.1
		s-0.3,0.1-0.3,0.1c-0.1,0.1-0.1,0.2-0.1,0.3c0,0.2,0.2,1,0.6,2.5c0.4,1.5,0.7,2.5,0.8,3.1h0.2c0.3-0.6,0.7-1.7,1.2-3.2
		c0.5-1.5,0.8-2.3,0.8-2.5c0-0.2-0.1-0.3-0.2-0.3c-0.1-0.1-0.3-0.1-0.6-0.1h-0.6l-0.1-0.1l0.1-0.8c0.1,0,0.4,0,0.8,0.1
		c0.4,0,0.8,0,1.2,0s0.7,0,1,0c0.3,0,0.5,0,0.6,0l-0.1,0.8c-0.2,0-0.4,0.1-0.5,0.2s-0.2,0.3-0.3,0.5l-2.7,7l-1.9,0.3
		C309.7,166,309.4,165,309,163.5z"/>
	<path class="st3" d="M323.2,159.2c0-0.2,0-0.3-0.1-0.4c-0.1-0.1-0.2-0.1-0.3-0.1h-0.5l0-0.1l0.1-0.8c0.1,0,0.3,0,0.7,0s0.6,0,1,0
		c0.3,0,0.6,0,0.9,0c0.3,0,0.6,0,0.7-0.1l-0.1,0.8c-0.3,0-0.6,0.1-0.7,0.3c-0.1,0.1-0.2,0.3-0.2,0.6l-0.2,7.1l-1.1,0.2
		c-1-1.4-2-2.8-3-4.2c-1-1.4-1.5-2-1.5-2h-0.1l0,4.4c0,0.2,0,0.4,0.1,0.5c0.1,0.1,0.2,0.1,0.4,0.1l0.6,0l0.1,0.1l-0.2,0.8
		c-0.1,0-0.4,0-0.7,0c-0.3,0-0.7,0-1,0c-0.3,0-0.6,0-0.9,0c-0.3,0-0.6,0-0.7,0.1l0.1-0.8c0.3,0,0.5-0.1,0.6-0.2
		c0.1-0.1,0.2-0.3,0.2-0.6l0.2-5.4c0-0.3-0.1-0.5-0.2-0.6c-0.2-0.1-0.5-0.2-0.9-0.2l-0.1-0.1l0.1-0.7c0.1,0,0.3,0,0.6,0
		c0.3,0,0.6,0,0.9,0c0.3,0,0.5,0,0.8,0s0.4,0,0.5,0c0.8,1.2,1.6,2.4,2.4,3.5c0.8,1.1,1.3,1.8,1.6,2.2h0.1L323.2,159.2z M319.6,155.6
		c-0.5-0.6-1-1.1-1.5-1.6l0.4-0.5l0.2,0c0.7,0.6,1.4,1.1,2.1,1.6c0,0,0.2-0.1,0.4-0.3c0.1-0.1,0.3-0.2,0.7-0.5s0.7-0.5,1.1-0.8
		l0.2,0l0.4,0.5c-0.5,0.5-1,1-1.5,1.6c-0.5,0.6-0.9,0.9-1,1.1h-0.3C320.4,156.5,320.1,156.2,319.6,155.6z"/>
	<path class="st3" d="M328.5,166c-0.6-0.3-1.1-0.8-1.4-1.4s-0.5-1.4-0.5-2.2c0-0.9,0.2-1.7,0.6-2.4c0.4-0.7,0.9-1.2,1.6-1.6
		c0.7-0.4,1.5-0.6,2.4-0.6c1.2,0,2.2,0.4,2.9,1.1c0.7,0.7,1.1,1.7,1.1,3c0,0.9-0.2,1.7-0.6,2.4c-0.4,0.7-0.9,1.3-1.6,1.7
		c-0.7,0.4-1.5,0.6-2.4,0.6C329.8,166.5,329.1,166.3,328.5,166z M332.7,164.7c0.4-0.5,0.6-1.3,0.6-2.2c0-1.1-0.2-2-0.7-2.7
		s-1.1-1-1.9-1c-0.7,0-1.3,0.3-1.7,0.8c-0.4,0.5-0.6,1.3-0.6,2.2c0,1.1,0.2,2,0.7,2.7c0.4,0.6,1,1,1.8,1
		C331.7,165.5,332.3,165.2,332.7,164.7z"/>
	<path class="st3" d="M337.8,163.5c-0.5-1.6-0.9-2.9-1.3-4c-0.1-0.3-0.2-0.5-0.4-0.6s-0.4-0.2-0.7-0.2l-0.1-0.1l0.1-0.7
		c0.1,0,0.4,0,0.7,0c0.3,0,0.7,0,1,0c0.4,0,0.8,0,1.3-0.1c0.5,0,0.8-0.1,1-0.1l0.1,0.1l-0.1,0.7c-0.3,0-0.6,0.1-0.7,0.1
		s-0.3,0.1-0.3,0.1c-0.1,0.1-0.1,0.2-0.1,0.3c0,0.2,0.2,1,0.6,2.5c0.4,1.5,0.7,2.5,0.8,3.1h0.2c0.3-0.6,0.7-1.7,1.2-3.2
		c0.5-1.5,0.8-2.3,0.8-2.5c0-0.2-0.1-0.3-0.2-0.3c-0.1-0.1-0.3-0.1-0.6-0.1h-0.6l-0.1-0.1l0.1-0.8c0.1,0,0.4,0,0.8,0.1
		c0.4,0,0.8,0,1.2,0s0.7,0,1,0c0.3,0,0.5,0,0.6,0l-0.1,0.8c-0.2,0-0.4,0.1-0.5,0.2s-0.2,0.3-0.3,0.5l-2.7,7l-1.9,0.3
		C338.6,166,338.3,165,337.8,163.5z"/>
</g>
<g>
	<path class="st3" d="M261.5,245c-0.5,0.1-0.8,0.1-0.9,0.1l0.1-0.9c0.5-0.1,0.9-0.2,1-0.4c0.2-0.2,0.3-0.5,0.3-1l0-6.9
		c0-0.4,0-0.6-0.1-0.7c-0.1-0.1-0.2-0.2-0.5-0.2c-0.1,0-0.2,0-0.3,0c-0.1,0-0.2,0-0.2,0l-0.1-0.1l0.1-0.9c0.2,0,0.4,0,0.9,0
		c0.4,0,0.8,0,1.2,0c0.4,0,0.8,0,1.3,0s0.8,0,1-0.1c1.1,0,2,0.2,2.6,0.7s0.9,1.1,0.9,1.9c0,0.6-0.2,1.1-0.5,1.5s-0.8,0.8-1.4,1.1
		c0.8,0.2,1.4,0.5,1.8,0.9s0.7,1,0.7,1.6c0,0.6-0.2,1.2-0.5,1.7c-0.4,0.5-0.9,0.9-1.5,1.2c-0.6,0.3-1.3,0.4-2.1,0.4
		c-0.2,0-0.4,0-0.6,0c-0.2,0-0.4,0-0.5-0.1c-0.7-0.1-1.2-0.1-1.3-0.1C262.4,245,262,245,261.5,245z M263.6,242.9
		c0,0.4,0.1,0.7,0.4,0.8c0.3,0.2,0.7,0.3,1.4,0.3c0.6,0,1.1-0.2,1.5-0.5c0.4-0.3,0.5-0.8,0.5-1.4c0-0.5-0.2-1-0.5-1.3
		s-0.9-0.6-1.5-0.7l-1.7,0L263.6,242.9z M264.7,238.9c0.4,0,0.7,0.1,0.8,0.1c0,0,0.1,0,0.4-0.2c0.3-0.2,0.5-0.4,0.7-0.7
		c0.2-0.3,0.3-0.7,0.3-1.2c0-0.7-0.2-1.1-0.7-1.5c-0.4-0.3-1.1-0.5-2.1-0.5c-0.1,0-0.2,0-0.2,0.1c0,0.1-0.1,0.2-0.1,0.3
		c-0.1,1.1-0.1,2.2-0.1,3.5C263.9,238.9,264.2,238.9,264.7,238.9z"/>
	<path class="st3" d="M271.6,242.2V238c0-0.3,0-0.5-0.1-0.6c-0.1-0.1-0.2-0.1-0.4-0.1l-0.4,0l0-0.1l0.1-0.8c0.1,0,0.4,0,0.7,0
		c0.4,0,0.7,0,1.1,0c0.2,0,0.5,0,0.9,0s0.6,0,0.7-0.1l-0.1,0.8c-0.3,0-0.5,0.1-0.6,0.2c-0.1,0.1-0.2,0.3-0.2,0.5l-0.1,3.9
		c0,0.7,0.2,1.3,0.5,1.6c0.3,0.4,0.8,0.6,1.4,0.6c1.3,0,1.9-0.6,1.9-1.9c0-0.7,0-1.5,0-2.4c0-0.9,0-1.5,0-1.8c0-0.3,0-0.5-0.1-0.6
		s-0.2-0.1-0.4-0.1l-0.5,0l0-0.1l0.1-0.8c0.1,0,0.3,0,0.7,0c0.3,0,0.6,0,1,0c0.3,0,0.6,0,0.9,0c0.3,0,0.5,0,0.6-0.1l-0.1,0.8
		c-0.4,0.1-0.6,0.1-0.7,0.2c-0.1,0.1-0.2,0.2-0.2,0.5v4.2c0,1-0.3,1.7-0.9,2.2c-0.6,0.5-1.5,0.8-2.6,0.8
		C272.7,245.1,271.6,244.2,271.6,242.2z"/>
	<path class="st3" d="M283.5,245c-0.5,0-0.8-0.1-1.2-0.1c-0.3,0-0.6,0-1,0.1s-0.6,0.1-0.7,0.1l0.1-0.8c0.4-0.1,0.7-0.2,0.8-0.3
		c0.1-0.2,0.2-0.4,0.2-0.8V238c0-0.3,0-0.5-0.1-0.6c-0.1-0.1-0.2-0.2-0.4-0.2c-0.1,0-0.2,0-0.3,0s-0.2,0-0.2,0l-0.1-0.1l0.1-0.7
		c0.1,0,0.4,0,0.7,0c0.3,0,0.7,0,1,0c0.4,0,0.8,0,1.3,0c0.4,0,0.7,0,0.9,0c1.4,0,2.5,0.4,3.3,1.1c0.8,0.7,1.2,1.7,1.2,2.9
		c0,0.9-0.2,1.7-0.6,2.4s-1,1.3-1.7,1.7c-0.7,0.4-1.6,0.6-2.5,0.6C284.2,245.1,283.9,245.1,283.5,245z M283.5,237.5
		c-0.1,0-0.1,0.1-0.1,0.3c-0.1,2.5-0.2,4.3-0.2,5.3c0,0.4,0.1,0.7,0.3,0.8c0.2,0.1,0.5,0.2,1.1,0.2c0.9,0,1.5-0.3,2-0.9
		c0.5-0.6,0.7-1.4,0.7-2.5c0-1.1-0.3-2-0.9-2.5s-1.4-0.8-2.6-0.8C283.7,237.4,283.6,237.5,283.5,237.5z"/>
	<path class="st3" d="M290.7,244.3c0.4-0.1,0.7-0.2,0.8-0.3c0.1-0.1,0.2-0.4,0.2-0.8l0-5.2c0-0.3,0-0.5-0.1-0.6
		c-0.1-0.1-0.2-0.1-0.4-0.1l-0.5,0l-0.1-0.1l0.1-0.7c0.2,0,0.4,0,0.6,0l1.3,0c0.3,0,0.6,0,1,0s0.7,0,0.8-0.1l-0.1,0.8
		c-0.4,0-0.6,0.1-0.7,0.2s-0.2,0.3-0.2,0.5c-0.1,2.2-0.2,4-0.2,5.3c0,0.4,0,0.6,0.1,0.7c0.1,0.1,0.2,0.2,0.5,0.2c0.2,0,0.3,0,0.4,0
		c0.1,0,0.2,0,0.2,0l0.1,0.1l-0.1,0.8c-0.1,0-0.4,0-0.8,0c-0.4,0-0.8,0-1.2,0c-0.3,0-0.7,0-1.1,0.1s-0.7,0.1-0.8,0.1L290.7,244.3z"
		/>
	<path class="st3" d="M297.4,245c-0.4-0.1-0.6-0.1-0.8-0.2c-0.2-0.1-0.3-0.1-0.4-0.2l-0.1-0.2c0-0.1,0-0.2,0.1-0.4
		c0-0.2,0.1-0.5,0.1-0.8c0-0.4,0.1-0.7,0.1-1l1-0.1c0,0.5,0,0.9,0.1,1.2c0.1,0.3,0.3,0.5,0.5,0.6c0.2,0.1,0.6,0.2,1,0.2
		c0.5,0,0.9-0.1,1.2-0.3c0.3-0.2,0.4-0.5,0.4-0.8c0-0.2-0.1-0.5-0.3-0.6c-0.2-0.2-0.4-0.3-0.6-0.5c-0.2-0.1-0.6-0.3-1.2-0.6
		c-0.7-0.3-1.3-0.7-1.6-1c-0.4-0.3-0.6-0.8-0.6-1.4c0-0.5,0.2-0.9,0.5-1.3c0.3-0.4,0.7-0.7,1.3-0.9c0.5-0.2,1.2-0.3,1.8-0.3
		c0.4,0,0.8,0,1.1,0.1c0.3,0,0.6,0.1,0.8,0.1c0.2,0.1,0.3,0.1,0.4,0.1l0.1,0.2c0,0.1-0.1,0.4-0.2,0.8c-0.1,0.4-0.1,0.9-0.2,1.4
		l-0.9,0.1l-0.1-0.1c0,0,0-0.1,0-0.2c0-0.1,0-0.2,0-0.3c0-0.4-0.1-0.7-0.3-0.9c-0.2-0.2-0.6-0.3-1.1-0.3c-0.4,0-0.8,0.1-1.1,0.3
		s-0.4,0.4-0.4,0.7c0,0.3,0.2,0.6,0.5,0.8c0.3,0.2,0.8,0.5,1.4,0.8c0.5,0.2,1,0.5,1.3,0.7c0.3,0.2,0.6,0.4,0.9,0.7
		c0.2,0.3,0.4,0.6,0.4,1.1c0,0.5-0.2,1-0.5,1.4c-0.3,0.4-0.8,0.7-1.3,0.9c-0.6,0.2-1.2,0.3-2,0.3C298.1,245.1,297.7,245.1,297.4,245
		z"/>
	<path class="st3" d="M304.1,244.3c0.4,0,0.6-0.2,0.7-0.3c0.1-0.2,0.2-0.4,0.2-0.8l0-5.2c0-0.3,0-0.5-0.1-0.6
		c-0.1-0.1-0.2-0.1-0.4-0.1l-0.4,0l-0.1-0.1l0.1-0.7c0.2,0,0.4,0,0.6,0l1.2,0c0.2,0,0.6,0,1.1,0s0.8,0,0.9-0.1l-0.1,0.9
		c-0.3,0-0.5,0.1-0.7,0.2c-0.1,0.1-0.2,0.2-0.3,0.3c0,0.1-0.1,0.3-0.1,0.6c-0.1,1.4-0.2,3.1-0.2,4.9c0,0.4,0.1,0.6,0.2,0.7
		c0.1,0.1,0.4,0.2,0.8,0.2c0.5,0,0.8,0,1.1-0.1c0.2-0.1,0.4-0.3,0.5-0.6c0.1-0.3,0.2-0.7,0.3-1.3l1-0.1l0.1,0.1
		c0,0.2-0.1,0.5-0.2,1.1s-0.2,1.2-0.2,1.8l-0.1,0.1c-0.3,0-0.8,0-1.6-0.1c-0.8,0-1.6-0.1-2.2-0.1c-0.5,0-0.9,0-1.4,0.1
		s-0.7,0.1-0.8,0.1L304.1,244.3z"/>
	<path class="st3" d="M315.9,245l0.1-0.7c0.5,0,0.8-0.1,0.9-0.2c0.1-0.1,0.2-0.2,0.2-0.3c0-0.1,0-0.3-0.1-0.5l-0.3-1.1
		c-0.2,0-0.7,0-1.3,0c-0.4,0-0.8,0-1.4,0.1l-0.4,1.1c-0.1,0.2-0.1,0.4-0.1,0.4c0,0.2,0.1,0.3,0.2,0.4c0.1,0.1,0.3,0.1,0.6,0.1h0.6
		l0.1,0.1l-0.1,0.8c-0.1,0-0.4,0-0.8-0.1c-0.4,0-0.8,0-1.2,0s-0.7,0-1,0c-0.3,0-0.5,0-0.6,0l0.1-0.8c0.2,0,0.4-0.1,0.6-0.2
		c0.1-0.1,0.3-0.4,0.4-0.7l2.6-6.7l1.8-0.2l0.2,0.1c0.1,0.5,0.4,1.5,0.9,3.1c0.4,1.5,0.8,2.8,1.2,3.8c0.1,0.3,0.2,0.6,0.4,0.7
		c0.2,0.1,0.4,0.2,0.8,0.2l0.1,0.1l-0.1,0.7c-0.1,0-0.3,0-0.7,0c-0.3,0-0.7,0-1,0c-0.5,0-0.9,0-1.4,0S316.1,245.1,315.9,245
		L315.9,245z M315.3,241.2c0.4,0,0.8,0,1.1-0.1l-0.9-3.1h-0.2l-1.1,3.1H315.3z"/>
	<path class="st3" d="M321.8,242.1c-0.5-1.6-0.9-2.9-1.3-4c-0.1-0.3-0.2-0.5-0.4-0.6c-0.2-0.1-0.4-0.2-0.7-0.2l-0.1-0.1l0.1-0.7
		c0.1,0,0.4,0,0.7,0c0.3,0,0.7,0,1,0c0.4,0,0.8,0,1.3-0.1c0.5,0,0.8-0.1,1-0.1l0.1,0.1l-0.1,0.7c-0.3,0-0.6,0.1-0.7,0.1
		c-0.2,0-0.3,0.1-0.3,0.1s-0.1,0.2-0.1,0.3c0,0.2,0.2,1,0.6,2.5c0.4,1.5,0.7,2.5,0.8,3.1h0.2c0.3-0.6,0.7-1.7,1.2-3.2
		s0.8-2.3,0.8-2.5c0-0.2-0.1-0.3-0.2-0.3c-0.1-0.1-0.3-0.1-0.6-0.1h-0.6l-0.1-0.1l0.1-0.8c0.1,0,0.4,0,0.8,0.1s0.8,0,1.2,0
		s0.7,0,1,0c0.3,0,0.5,0,0.6,0l-0.1,0.8c-0.2,0-0.4,0.1-0.5,0.2c-0.1,0.1-0.2,0.3-0.3,0.5l-2.7,7l-1.9,0.3
		C322.5,244.7,322.2,243.7,321.8,242.1z"/>
</g>
<circle class="st3" cx="311.2" cy="186.4" r="4.9"/>
<circle class="st3" cx="298.9" cy="218.3" r="4.9"/>
</svg>
