<?xml version="1.0" encoding="utf-8"?>
<!-- Generator: Adobe Illustrator 24.1.2, SVG Export Plug-In . SVG Version: 6.00 Build 0)  -->
<svg version="1.1" id="Ebene_1" xmlns="http://www.w3.org/2000/svg" xmlns:xlink="http://www.w3.org/1999/xlink" x="0px" y="0px"
	 viewBox="0 0 400 400" style="enable-background:new 0 0 400 400;" xml:space="preserve">
<style type="text/css">
	.st0{fill:#EDD8C1;}
	.st1{fill:none;stroke:#EDD8C1;stroke-width:2;stroke-miterlimit:10;}
	.st2{fill:none;}
	.st3{fill:#E6B208;}
	.st4{fill:#E6B208;stroke:#EDD8C1;stroke-miterlimit:10;}
</style>
<circle class="st0" cx="124" cy="121.5" r="9.8"/>
<g>
	<path class="st0" d="M86.9,104.3c0.5,0,0.9-0.1,1.1-0.2c0.2-0.1,0.3-0.3,0.4-0.5c0.1-0.2,0.1-0.6,0.1-1.2v-6.7
		c-0.8,0-1.3,0.1-1.6,0.2c-0.3,0.1-0.5,0.2-0.6,0.5c-0.1,0.3-0.2,0.7-0.3,1.4l-1,0.1c0.1-0.9,0.2-2,0.2-3.1l0.2-0.1l1.4,0.2h5
		l1.5-0.2l0.2,0.1c0,1.1,0.1,2.1,0.2,3l-1,0.1c-0.1-0.7-0.2-1.2-0.3-1.5c-0.1-0.3-0.3-0.4-0.6-0.5s-0.8-0.1-1.5-0.2
		c-0.1,0.7-0.1,1.8-0.2,3.3c0,1.5-0.1,2.9-0.1,4.1c0,0.4,0.1,0.7,0.2,0.8s0.4,0.2,0.7,0.2c0.3,0,0.6,0,0.9,0l0.1,0.1l-0.1,0.9
		c-1,0-1.9-0.1-2.5-0.1c-0.7,0-1.5,0-2.4,0.1L86.9,104.3z"/>
	<path class="st0" d="M97.8,105.1l0-0.7c0.4,0,0.7-0.1,0.9-0.1c0.1-0.1,0.2-0.2,0.2-0.3c0-0.1,0-0.3-0.1-0.5l-0.3-1
		c-0.2,0-0.6,0-1.3,0c-0.3,0-0.8,0-1.3,0.1l-0.4,1c-0.1,0.2-0.1,0.3-0.1,0.4c0,0.2,0.1,0.3,0.2,0.3s0.3,0.1,0.5,0.1h0.6l0.1,0.1
		l-0.1,0.7c-0.1,0-0.4,0-0.8,0c-0.4,0-0.8,0-1.1,0c-0.4,0-0.7,0-1,0c-0.3,0-0.5,0-0.6,0l0.1-0.8c0.2,0,0.4-0.1,0.5-0.2
		s0.3-0.3,0.4-0.6l2.4-6.3l1.7-0.2l0.1,0c0.1,0.5,0.4,1.4,0.8,2.9s0.8,2.7,1.1,3.6c0.1,0.3,0.2,0.5,0.4,0.6c0.2,0.1,0.4,0.2,0.7,0.2
		l0,0.1l-0.1,0.7c-0.1,0-0.3,0-0.6,0c-0.3,0-0.6,0-0.9,0c-0.4,0-0.9,0-1.3,0C98.3,105.1,98,105.1,97.8,105.1L97.8,105.1z M96.2,96
		l-0.4-0.4c0.5-0.5,1-1.1,1.5-1.7c0.5-0.6,0.8-0.9,1-1.1l0.2,0l0.7,0.8l0,0.2c-0.2,0.1-0.5,0.4-1.1,0.8S97,95.6,96.4,96L96.2,96z
		 M97.3,101.5c0.4,0,0.8,0,1.1,0l-0.8-2.9h-0.2l-1,2.9H97.3z"/>
	<path class="st0" d="M103.2,105.1c-0.4,0-0.6,0.1-0.8,0.1l0.1-0.8c0.4-0.1,0.7-0.2,0.8-0.3c0.1-0.1,0.2-0.4,0.2-0.7l0-4.9
		c0-0.2,0-0.4-0.1-0.5c-0.1-0.1-0.2-0.1-0.3-0.1l-0.4,0l-0.1-0.1l0.1-0.7c0.1,0,0.4,0,0.7,0s0.7,0,1,0c0.3,0,0.7,0,1.1,0
		c0.4,0,0.7,0,0.8,0c0.9,0,1.6,0.2,2,0.5c0.5,0.3,0.7,0.8,0.7,1.4c0,0.5-0.1,0.9-0.4,1.2s-0.6,0.6-1,0.7c0.5,0.1,0.9,0.3,1.3,0.6
		s0.6,0.7,0.6,1.2c0,0.5-0.1,0.9-0.4,1.3c-0.3,0.4-0.7,0.7-1.2,0.9c-0.5,0.2-1.1,0.3-1.7,0.3c-0.1,0-0.4,0-0.8-0.1
		c-0.5,0-0.9-0.1-1.1-0.1C104,105.1,103.6,105.1,103.2,105.1z M105,103.5c0,0.3,0.1,0.5,0.3,0.6c0.2,0.1,0.5,0.2,1,0.2
		c0.5,0,0.8-0.1,1.1-0.3s0.4-0.6,0.4-1c0-0.4-0.1-0.7-0.4-0.9c-0.2-0.2-0.6-0.4-1.1-0.5h-1.3L105,103.5z M105.7,100.6
		c0.3,0,0.5,0,0.7,0c0,0,0.1,0,0.3-0.1c0.2-0.1,0.4-0.3,0.5-0.5s0.2-0.5,0.2-0.8c0-0.4-0.2-0.8-0.5-1c-0.3-0.2-0.8-0.3-1.5-0.3
		c-0.1,0-0.1,0-0.2,0c0,0,0,0.1-0.1,0.2c-0.1,0.6-0.1,1.4-0.1,2.4C105.2,100.5,105.4,100.5,105.7,100.6z"/>
	<path class="st0" d="M112.5,104.7c-0.6-0.3-1-0.8-1.3-1.4c-0.3-0.6-0.5-1.3-0.5-2.1c0-0.9,0.2-1.6,0.6-2.3c0.4-0.7,0.9-1.2,1.5-1.5
		c0.7-0.4,1.4-0.6,2.2-0.6c1.2,0,2.1,0.3,2.8,1s1,1.6,1,2.8c0,0.9-0.2,1.6-0.6,2.3c-0.4,0.7-0.9,1.2-1.6,1.6
		c-0.7,0.4-1.4,0.6-2.3,0.6C113.8,105.2,113.1,105,112.5,104.7z M116.5,103.5c0.4-0.5,0.6-1.2,0.6-2.1c0-1.1-0.2-1.9-0.6-2.5
		c-0.4-0.6-1-0.9-1.8-0.9c-0.7,0-1.2,0.2-1.6,0.7c-0.4,0.5-0.6,1.2-0.6,2.1c0,1.1,0.2,1.9,0.6,2.5c0.4,0.6,1,0.9,1.7,0.9
		C115.6,104.2,116.1,104,116.5,103.5z"/>
	<path class="st0" d="M125,104.1l-1.2-2.2h-1l0,1.5c0,0.3,0,0.5,0.1,0.6c0,0.1,0.1,0.2,0.2,0.3s0.3,0.1,0.6,0.1l0,0.1l-0.1,0.7
		c-0.1,0-0.4,0-0.8,0c-0.4,0-0.7,0-1.1,0c-0.3,0-0.6,0-0.9,0c-0.3,0-0.5,0-0.6,0l0.1-0.8c0.4-0.1,0.6-0.1,0.8-0.3s0.2-0.4,0.2-0.7
		l0-4.9c0-0.2,0-0.4-0.1-0.5c-0.1-0.1-0.2-0.1-0.3-0.1l-0.5,0l-0.1-0.1l0.1-0.7c0.1,0,0.3,0,0.7,0c0.3,0,0.6,0,0.9,0
		c0.3,0,0.7,0,1.1,0c0.4,0,0.6,0,0.8,0c0.9,0,1.7,0.2,2.2,0.6c0.5,0.4,0.8,0.9,0.8,1.5c0,0.5-0.2,0.9-0.5,1.4
		c-0.3,0.4-0.8,0.8-1.4,1l1.2,1.9c0.3,0.4,0.5,0.7,0.7,0.8c0.2,0.2,0.5,0.2,0.8,0.2l0.1,0.1l-0.1,0.6l-1.4,0.1
		C125.8,105.2,125.4,104.9,125,104.1z M125.2,99.3c0-0.5-0.2-0.8-0.5-1.1c-0.3-0.2-0.9-0.4-1.6-0.4c-0.1,0-0.1,0-0.2,0.1
		c0,0,0,0.1,0,0.2c-0.1,1.2-0.1,2.1-0.1,2.6l1.2,0.1C124.8,100.7,125.2,100.1,125.2,99.3z"/>
</g>
<g>
	<path class="st0" d="M178.9,340.7l-3-0.1c4.4-170.3-22.7-277.4-23-278.5l2.9-0.7C156.1,62.4,183.3,169.9,178.9,340.7z"/>
</g>
<circle class="st0" cx="153.9" cy="285.5" r="6.9"/>
<g>
	<path class="st0" d="M85.7,273.9c-0.4-0.1-0.7-0.2-1-0.3s-0.4-0.2-0.4-0.2l-0.1-0.2c0-0.1,0-0.2,0.1-0.5c0-0.2,0.1-0.6,0.1-1
		c0-0.4,0.1-0.9,0.1-1.3l1-0.1c0,0.7,0.1,1.2,0.2,1.6s0.3,0.6,0.6,0.7s0.7,0.2,1.2,0.2c0.6,0,1.1-0.1,1.4-0.4s0.5-0.7,0.5-1.1
		c0-0.4-0.2-0.7-0.5-1c-0.3-0.3-0.9-0.6-1.6-0.9c0,0-0.1-0.1-0.3-0.2c-0.8-0.4-1.4-0.8-1.9-1.2c-0.5-0.4-0.7-0.9-0.7-1.6
		c0-0.6,0.2-1.1,0.5-1.6c0.3-0.5,0.8-0.8,1.4-1.1c0.6-0.3,1.3-0.4,2-0.4c0.4,0,0.8,0,1.2,0.1c0.4,0.1,0.7,0.1,0.9,0.2
		c0.2,0.1,0.4,0.1,0.4,0.1l0.1,0.1c0,0.1-0.1,0.5-0.2,1c-0.1,0.5-0.1,1.1-0.2,1.7l-0.9,0.1l-0.1-0.1c0,0,0-0.1,0-0.3
		c0-0.1,0-0.3,0-0.5c0-0.5-0.1-0.9-0.4-1.1s-0.7-0.3-1.4-0.3c-0.5,0-1,0.1-1.3,0.4c-0.3,0.3-0.5,0.6-0.5,1c0,0.4,0.2,0.7,0.5,1
		s0.9,0.6,1.6,1c0.6,0.3,1.1,0.6,1.5,0.8c0.4,0.2,0.7,0.5,1,0.9c0.3,0.4,0.4,0.8,0.4,1.2c0,0.6-0.2,1.2-0.5,1.6
		c-0.3,0.5-0.8,0.9-1.5,1.1S87.8,274,87,274C86.5,274,86.1,274,85.7,273.9z"/>
	<path class="st0" d="M94.3,273.5c-0.6-0.3-1-0.8-1.3-1.4c-0.3-0.6-0.5-1.3-0.5-2.1c0-0.9,0.2-1.6,0.6-2.3c0.4-0.7,0.9-1.2,1.5-1.5
		c0.7-0.4,1.4-0.6,2.2-0.6c1.2,0,2.1,0.3,2.8,1s1,1.6,1,2.8c0,0.9-0.2,1.6-0.6,2.3s-0.9,1.2-1.6,1.6c-0.7,0.4-1.4,0.6-2.3,0.6
		C95.6,273.9,94.9,273.8,94.3,273.5z M98.3,272.2c0.4-0.5,0.6-1.2,0.6-2.1c0-1.1-0.2-1.9-0.6-2.5s-1-0.9-1.8-0.9
		c-0.7,0-1.2,0.2-1.6,0.7c-0.4,0.5-0.6,1.2-0.6,2.1c0,1.1,0.2,1.9,0.6,2.5s1,0.9,1.7,0.9C97.3,273,97.9,272.7,98.3,272.2z"/>
	<path class="st0" d="M102.8,273.9c-0.4,0-0.6,0.1-0.8,0.1l0.1-0.8c0.4-0.1,0.7-0.2,0.8-0.3c0.1-0.1,0.2-0.4,0.2-0.7l0-4.9
		c0-0.2,0-0.4-0.1-0.5c-0.1-0.1-0.2-0.1-0.3-0.1l-0.4,0l-0.1-0.1l0.1-0.7c0.1,0,0.4,0,0.7,0s0.7,0,1,0c0.3,0,0.7,0,1.1,0
		c0.4,0,0.7,0,0.8,0c0.9,0,1.6,0.2,2,0.5c0.5,0.3,0.7,0.8,0.7,1.4c0,0.5-0.1,0.9-0.4,1.2s-0.6,0.6-1,0.7c0.5,0.1,0.9,0.3,1.3,0.6
		c0.4,0.3,0.6,0.7,0.6,1.2c0,0.5-0.1,0.9-0.4,1.3c-0.3,0.4-0.7,0.7-1.2,0.9c-0.5,0.2-1.1,0.3-1.7,0.3c-0.1,0-0.4,0-0.8-0.1
		c-0.5,0-0.9-0.1-1.1-0.1C103.5,273.8,103.1,273.8,102.8,273.9z M104.5,272.2c0,0.3,0.1,0.5,0.3,0.6c0.2,0.1,0.5,0.2,1,0.2
		c0.5,0,0.8-0.1,1.1-0.3s0.4-0.6,0.4-1c0-0.4-0.1-0.7-0.4-0.9c-0.2-0.2-0.6-0.4-1.1-0.5h-1.3L104.5,272.2z M105.2,269.3
		c0.3,0,0.5,0,0.7,0c0,0,0.1,0,0.3-0.1c0.2-0.1,0.4-0.3,0.5-0.5s0.2-0.5,0.2-0.8c0-0.4-0.2-0.8-0.5-1c-0.3-0.2-0.8-0.3-1.5-0.3
		c-0.1,0-0.1,0-0.2,0c0,0,0,0.1-0.1,0.2c-0.1,0.6-0.1,1.4-0.1,2.4C104.7,269.3,104.9,269.3,105.2,269.3z"/>
	<path class="st0" d="M110.5,273.1c0.4,0,0.6-0.1,0.8-0.3c0.1-0.2,0.2-0.4,0.2-0.8l0-4.8c0-0.3,0-0.4-0.1-0.5
		c-0.1-0.1-0.2-0.1-0.4-0.1l-0.4,0l-0.1-0.1l0.1-0.7c0.1,0,0.4,0,0.9,0c0.4,0,0.9,0,1.4,0c1.8,0,3.2,0,4-0.1l0.1,0.1
		c0,0.1-0.1,0.4-0.1,0.8c-0.1,0.4-0.1,0.9-0.2,1.4l-1,0.1c0,0,0-0.1,0-0.2s0-0.2,0-0.3c0-0.3,0-0.4-0.1-0.5
		c-0.1-0.1-0.2-0.2-0.5-0.2c-0.2,0-0.6-0.1-1.2-0.1c-0.2,0-0.4,0-0.5,0c-0.1,0-0.2,0.1-0.2,0.1c0,0.1,0,0.1,0,0.3l-0.1,2.1l1.2,0
		c0.2,0,0.5,0,0.8-0.1c0.4,0,0.6-0.1,0.7-0.1l0.1,0.1l-0.2,1c-0.1,0-0.3,0-0.7,0c-0.3,0-0.7,0-1.1,0c-0.3,0-0.6,0-1,0.1
		c0,0.7,0,1.3,0,1.9c0,0.2,0,0.4,0.1,0.5c0,0.1,0.1,0.2,0.2,0.2s0.3,0,0.6,0c0.6,0,1.1,0,1.3-0.1c0.3-0.1,0.5-0.2,0.6-0.4
		c0.1-0.2,0.2-0.5,0.3-1l0.9-0.1l0.1,0.1c0,0.1-0.1,0.4-0.2,0.9c-0.1,0.4-0.1,0.9-0.2,1.4l-0.1,0.1c-0.3,0-0.9,0-1.8,0
		c-0.9,0-1.7,0-2.3,0c-0.5,0-0.9,0-1.3,0.1c-0.4,0-0.7,0.1-0.8,0.1L110.5,273.1z M112.8,263.7c-0.5-0.5-1-1-1.4-1.5l0.4-0.5l0.2,0
		c0.7,0.5,1.3,1,2,1.5c0,0,0.2-0.1,0.4-0.3c0.1-0.1,0.3-0.2,0.6-0.5c0.3-0.2,0.7-0.5,1-0.8l0.2,0l0.4,0.5c-0.5,0.5-1,1-1.4,1.5
		s-0.8,0.9-1,1h-0.3C113.6,264.6,113.3,264.2,112.8,263.7z"/>
	<path class="st0" d="M119.8,273.9c-0.3-0.1-0.6-0.1-0.8-0.2c-0.2-0.1-0.3-0.1-0.4-0.1l-0.1-0.2c0-0.1,0-0.2,0.1-0.4
		s0.1-0.5,0.1-0.8c0-0.3,0-0.7,0-1l0.9-0.1c0,0.5,0,0.9,0.1,1.1c0.1,0.3,0.2,0.4,0.5,0.5c0.2,0.1,0.5,0.2,0.9,0.2
		c0.5,0,0.8-0.1,1.1-0.3s0.4-0.4,0.4-0.8c0-0.2-0.1-0.4-0.3-0.6c-0.2-0.2-0.4-0.3-0.6-0.4c-0.2-0.1-0.6-0.3-1.1-0.5
		c-0.7-0.3-1.2-0.6-1.6-1c-0.4-0.3-0.5-0.7-0.5-1.3c0-0.5,0.1-0.9,0.4-1.3c0.3-0.4,0.7-0.7,1.2-0.9s1.1-0.3,1.7-0.3
		c0.4,0,0.7,0,1,0.1c0.3,0,0.6,0.1,0.8,0.1s0.3,0.1,0.4,0.1l0.1,0.2c0,0.1-0.1,0.4-0.1,0.8c-0.1,0.4-0.1,0.9-0.2,1.3l-0.8,0.1
		l-0.1-0.1c0,0,0-0.1,0-0.2c0-0.1,0-0.2,0-0.3c0-0.4-0.1-0.7-0.3-0.8c-0.2-0.2-0.6-0.2-1.1-0.2c-0.4,0-0.7,0.1-1,0.3
		s-0.4,0.4-0.4,0.7c0,0.3,0.1,0.5,0.4,0.7c0.3,0.2,0.7,0.4,1.3,0.7c0.5,0.2,0.9,0.4,1.2,0.6c0.3,0.2,0.6,0.4,0.8,0.7
		c0.2,0.3,0.3,0.6,0.3,1c0,0.5-0.1,0.9-0.4,1.3c-0.3,0.4-0.7,0.7-1.2,0.9c-0.5,0.2-1.2,0.3-1.9,0.3
		C120.5,273.9,120.2,273.9,119.8,273.9z"/>
	<path class="st0" d="M126.2,273.1c0.3,0,0.6-0.1,0.7-0.3c0.1-0.2,0.2-0.4,0.2-0.8l0-4.8c0-0.3,0-0.4-0.1-0.5
		c-0.1-0.1-0.2-0.1-0.4-0.1l-0.4,0l-0.1-0.1l0.1-0.7c0.2,0,0.4,0,0.5,0l1.2,0c0.2,0,0.6,0,1,0s0.7,0,0.8-0.1l-0.1,0.8
		c-0.3,0-0.5,0.1-0.6,0.1c-0.1,0.1-0.2,0.2-0.2,0.3c0,0.1-0.1,0.3-0.1,0.6c-0.1,1.3-0.2,2.9-0.2,4.6c0,0.3,0.1,0.6,0.2,0.7
		c0.1,0.1,0.4,0.1,0.7,0.1c0.5,0,0.8,0,1-0.1c0.2-0.1,0.4-0.3,0.5-0.5c0.1-0.3,0.2-0.7,0.3-1.2l0.9-0.1l0.1,0.1c0,0.1-0.1,0.5-0.1,1
		c-0.1,0.5-0.1,1.1-0.2,1.7l-0.1,0.1c-0.2,0-0.8,0-1.6-0.1c-0.8,0-1.5,0-2.1,0c-0.5,0-0.9,0-1.3,0.1c-0.4,0-0.7,0.1-0.8,0.1
		L126.2,273.1z"/>
	<path class="st0" d="M137.3,273.8l0-0.7c0.4,0,0.7-0.1,0.9-0.1c0.1-0.1,0.2-0.2,0.2-0.3c0-0.1,0-0.3-0.1-0.5l-0.3-1
		c-0.2,0-0.6,0-1.3,0c-0.3,0-0.8,0-1.3,0.1l-0.4,1c-0.1,0.2-0.1,0.3-0.1,0.4c0,0.2,0.1,0.3,0.2,0.3c0.1,0.1,0.3,0.1,0.5,0.1h0.6
		l0.1,0.1l-0.1,0.7c-0.1,0-0.4,0-0.8,0s-0.8,0-1.1,0c-0.4,0-0.7,0-1,0c-0.3,0-0.5,0-0.6,0l0.1-0.8c0.2,0,0.4-0.1,0.5-0.2
		c0.1-0.1,0.3-0.3,0.4-0.6l2.4-6.3l1.7-0.2l0.1,0c0.1,0.5,0.4,1.4,0.8,2.9s0.8,2.7,1.1,3.6c0.1,0.3,0.2,0.5,0.4,0.6
		c0.2,0.1,0.4,0.2,0.7,0.2l0,0.1l-0.1,0.7c-0.1,0-0.3,0-0.6,0c-0.3,0-0.6,0-0.9,0c-0.4,0-0.9,0-1.3,0
		C137.7,273.9,137.5,273.9,137.3,273.8L137.3,273.8z M136.7,270.3c0.4,0,0.8,0,1.1,0l-0.8-2.9h-0.2l-1,2.9H136.7z"/>
	<path class="st0" d="M142.8,271.1c-0.4-1.5-0.8-2.7-1.2-3.8c-0.1-0.2-0.2-0.4-0.4-0.6c-0.2-0.1-0.4-0.2-0.7-0.2l0-0.1l0.1-0.7
		c0.1,0,0.3,0,0.7,0c0.3,0,0.6,0,1,0c0.4,0,0.8,0,1.2,0c0.5,0,0.8-0.1,0.9-0.1l0.1,0.1l0,0.7c-0.3,0-0.6,0.1-0.7,0.1
		c-0.1,0-0.2,0.1-0.3,0.1s-0.1,0.1-0.1,0.3c0,0.2,0.2,1,0.6,2.4c0.4,1.4,0.6,2.4,0.8,2.9h0.2c0.3-0.6,0.6-1.6,1.1-3s0.7-2.2,0.7-2.3
		c0-0.1-0.1-0.3-0.2-0.3c-0.1-0.1-0.3-0.1-0.6-0.1h-0.6l0-0.1l0.1-0.7c0.1,0,0.4,0,0.8,0s0.8,0,1.1,0s0.7,0,1,0s0.5,0,0.6,0
		l-0.1,0.8c-0.2,0-0.4,0.1-0.5,0.2c-0.1,0.1-0.2,0.2-0.3,0.5l-2.5,6.5l-1.8,0.3C143.5,273.5,143.2,272.6,142.8,271.1z"/>
</g>
<g>
	<path class="st0" d="M173.3,54.8c-0.5-0.1-0.9-0.1-1.2-0.1c-0.3,0-0.7,0-1,0.1c-0.4,0-0.6,0.1-0.8,0.1l0.1-0.8
		c0.5-0.1,0.8-0.2,0.9-0.4c0.1-0.2,0.2-0.5,0.2-0.9l0-6c0-0.3,0-0.5-0.1-0.6c-0.1-0.1-0.2-0.2-0.4-0.2c-0.1,0-0.2,0-0.3,0
		s-0.2,0-0.2,0l-0.1-0.1l0.1-0.8c0.1,0,0.4,0,0.7,0s0.7,0,1,0c0.4,0,0.9,0,1.4,0c0.5,0,0.8,0,1,0c1,0,1.8,0.2,2.6,0.6
		c0.7,0.4,1.3,0.9,1.7,1.6c0.4,0.7,0.6,1.5,0.6,2.4c0,1-0.2,1.9-0.7,2.7c-0.5,0.8-1.1,1.4-1.9,1.9s-1.7,0.7-2.7,0.7
		C174.1,54.9,173.8,54.9,173.3,54.8z M173.2,46.2c-0.1,0-0.1,0.1-0.1,0.3l0,0.4c-0.1,3.1-0.2,5.1-0.2,5.9c0,0.3,0,0.6,0.1,0.8
		c0.1,0.2,0.2,0.3,0.5,0.4c0.2,0.1,0.6,0.1,1,0.1c1,0,1.8-0.3,2.3-1c0.5-0.7,0.8-1.7,0.8-2.9c0-1.3-0.3-2.3-1-2.9
		c-0.7-0.7-1.7-1-3-1C173.4,46.1,173.3,46.1,173.2,46.2z"/>
	<path class="st0" d="M180.5,56c-0.2-0.2-0.3-0.5-0.3-1l0.1-0.1c0.4,0.1,0.8,0.2,1.2,0.2c0.5,0,0.9-0.1,1.2-0.2
		c0.4-0.2,0.7-0.4,0.9-0.6c0.2-0.3,0.3-0.6,0.3-0.9c0-0.5-0.2-0.8-0.6-1c-0.4-0.2-1-0.3-1.9-0.3l-0.1-0.1l-0.1-0.7l1-0.2
		c0.4-0.2,0.7-0.4,0.9-0.7c0.2-0.3,0.3-0.6,0.3-0.9c0-0.3-0.1-0.5-0.3-0.7c-0.2-0.2-0.5-0.3-0.8-0.3c-0.3,0-0.6,0.1-0.9,0.2
		c-0.3,0.1-0.6,0.3-0.8,0.5l-0.2,0l-0.2-0.8c0.2-0.2,0.6-0.4,1.1-0.7c0.5-0.3,1-0.4,1.5-0.4c0.6,0,1.1,0.2,1.5,0.5
		c0.4,0.3,0.6,0.7,0.6,1.2c0,0.4-0.1,0.8-0.5,1.2c-0.3,0.4-0.7,0.7-1.2,0.9v0.1c0.7,0.2,1.2,0.4,1.5,0.7c0.3,0.3,0.5,0.7,0.5,1.2
		c0,0.5-0.2,1-0.6,1.6c-0.4,0.5-1,0.9-1.6,1.3s-1.3,0.5-2,0.5C180.9,56.3,180.7,56.2,180.5,56z"/>
</g>
<path class="st1" d="M153.9,285.5c0,0,78.7-44.4,157.4-57.1"/>
<line class="st2" x1="172" y1="178.6" x2="206.8" y2="178.6"/>
<line class="st2" x1="172" y1="178.6" x2="206.8" y2="178.6"/>
<g>
	<path class="st0" d="M207.6,240.2c0.4,0,0.7-0.1,0.8-0.2c0.2-0.1,0.3-0.2,0.4-0.5s0.1-0.5,0.1-0.9v-3.3c0-0.3-0.1-0.6-0.2-0.7
		c-0.1-0.1-0.3-0.2-0.6-0.2c-0.1,0-0.3,0-0.4,0c-0.2,0-0.3,0-0.3,0.1l-0.1-0.1l0.1-0.7c0.4,0,1-0.1,1.7-0.2c0.8-0.1,1.3-0.2,1.5-0.2
		s0.3-0.1,0.3-0.1l0.1,0.3c-0.2,0.2-0.3,0.3-0.4,0.5s-0.1,0.4-0.2,0.7c-0.1,1.2-0.1,2.7-0.1,4.2c0,0.4,0,0.7,0.1,0.8
		c0.1,0.1,0.3,0.2,0.6,0.2c0.2,0,0.3,0,0.5,0c0.1,0,0.2,0,0.3,0l0,0.1l-0.2,0.8c-0.1,0-0.4,0-0.8,0c-0.4,0-0.8,0-1.2,0
		c-0.4,0-0.8,0-1.2,0.1c-0.5,0-0.7,0.1-0.9,0.1L207.6,240.2z"/>
	<path class="st0" d="M212.7,242.1c-0.2-0.2-0.3-0.5-0.3-1l0.1-0.1c0.4,0.1,0.8,0.2,1.2,0.2c0.5,0,0.9-0.1,1.2-0.2
		c0.4-0.2,0.7-0.4,0.9-0.6c0.2-0.3,0.3-0.6,0.3-0.9c0-0.5-0.2-0.8-0.6-1s-1-0.3-1.9-0.3l-0.1-0.1l-0.1-0.7l1-0.2
		c0.4-0.2,0.7-0.4,0.9-0.7c0.2-0.3,0.3-0.6,0.3-0.9c0-0.3-0.1-0.5-0.3-0.7s-0.5-0.3-0.8-0.3c-0.3,0-0.6,0.1-0.9,0.2
		c-0.3,0.1-0.6,0.3-0.8,0.5l-0.2,0l-0.2-0.8c0.2-0.2,0.6-0.4,1.1-0.7c0.5-0.3,1-0.4,1.5-0.4c0.6,0,1.1,0.2,1.5,0.5
		c0.4,0.3,0.6,0.7,0.6,1.2c0,0.4-0.1,0.8-0.5,1.2c-0.3,0.4-0.7,0.7-1.2,0.9v0.1c0.7,0.2,1.2,0.4,1.5,0.7s0.5,0.7,0.5,1.2
		c0,0.5-0.2,1-0.6,1.6s-1,0.9-1.6,1.3s-1.3,0.5-2,0.5C213.1,242.4,212.8,242.3,212.7,242.1z"/>
	<path class="st0" d="M218.9,242.1c-0.2-0.2-0.3-0.5-0.3-1l0.1-0.1c0.4,0.1,0.9,0.2,1.2,0.2c0.7,0,1.3-0.2,1.8-0.5
		c0.5-0.3,0.7-0.8,0.7-1.3c0-0.3-0.1-0.6-0.3-0.8c-0.2-0.2-0.5-0.4-0.9-0.5c-0.4-0.2-1-0.3-1.8-0.4l-0.1-0.2
		c0.1-0.8,0.1-1.5,0.2-2.3c0-0.8,0.1-1.3,0.1-1.5l0.1-0.1l2.9-0.1c0.3,0,0.5-0.1,0.6-0.1s0.2-0.2,0.3-0.4l0.6-0.1l-0.4,2l-0.1,0.1
		c-0.2,0-0.6,0-1.2-0.1s-1.3-0.1-2-0.1l-0.1,1.7c1.2,0.2,2.1,0.6,2.7,0.9s0.9,0.9,0.9,1.6c0,0.6-0.2,1.1-0.7,1.7s-1,1-1.7,1.3
		c-0.7,0.3-1.3,0.5-2,0.5C219.3,242.4,219,242.3,218.9,242.1z"/>
</g>
<polyline class="st1" points="266.9,238.6 298.9,260.2 311.2,228.4 "/>
<g>
	<path class="st3" d="M278.5,207.5c0.5-0.1,0.8-0.3,1-0.5c0.2-0.2,0.3-0.5,0.3-1l0-6.9c0-0.4,0-0.6-0.1-0.7
		c-0.1-0.1-0.3-0.2-0.5-0.2l-0.5,0l-0.1-0.1l0.1-0.9l1,0c0.2,0,0.5,0,0.9,0c0.3,0,1.1,0,2.1-0.1l-0.1,0.9c-0.3,0.1-0.6,0.1-0.7,0.2
		c-0.1,0.1-0.2,0.2-0.3,0.4c-0.1,0.2-0.1,0.4-0.1,0.8l-0.1,2.6l2.6,0c0.6,0,1.4,0,2.3-0.1l0-2.9c0-0.4,0-0.6-0.1-0.7
		c-0.1-0.1-0.3-0.2-0.5-0.2c-0.2,0-0.3,0-0.5,0l-0.1-0.1l0.1-0.9l0.5,0l1.4,0c0.3,0,1.1,0,2.2-0.1l-0.1,0.9
		c-0.4,0.1-0.7,0.1-0.8,0.3c-0.1,0.1-0.2,0.4-0.2,0.7c-0.1,1.1-0.1,2.4-0.2,3.8c0,1.4-0.1,2.5-0.1,3.3c0,0.4,0.1,0.7,0.2,0.9
		c0.1,0.2,0.3,0.2,0.6,0.2c0.1,0,0.4,0,0.7-0.1l0.1,0.1l-0.2,0.9c-0.1,0-0.3,0-0.4,0c-0.8,0-1.5,0-1.9,0l-2.1,0l0.2-0.9
		c0.4,0,0.6-0.1,0.8-0.2c0.2-0.1,0.3-0.3,0.4-0.5c0.1-0.2,0.1-0.6,0.1-1.1v-2.4l-2.3,0c-0.3,0-0.6,0-1.1,0.1c-0.5,0-1,0.1-1.5,0.1
		l-0.1,2.8c0,0.5,0,0.8,0.1,0.9c0.1,0.2,0.3,0.2,0.6,0.2c0.1,0,0.3,0,0.7-0.1l0.1,0.1l-0.2,0.9c-0.2,0-0.4,0-0.8,0c-0.3,0-0.6,0-1,0
		c-0.5,0-1,0-1.6,0.1c-0.6,0-0.9,0.1-1.1,0.1L278.5,207.5z"/>
	<path class="st3" d="M291.3,207.6c0.4,0,0.6-0.2,0.7-0.3c0.1-0.2,0.2-0.4,0.2-0.8l0-5.2c0-0.3,0-0.5-0.1-0.6
		c-0.1-0.1-0.2-0.1-0.4-0.1l-0.4,0l-0.1-0.1l0.1-0.7c0.2,0,0.4,0,0.6,0l1.2,0c0.2,0,0.6,0,1.1,0s0.8,0,0.9-0.1l-0.1,0.9
		c-0.3,0-0.5,0.1-0.7,0.2s-0.2,0.2-0.3,0.3c0,0.1-0.1,0.3-0.1,0.6c-0.1,1.4-0.2,3.1-0.2,4.9c0,0.4,0.1,0.6,0.2,0.7
		c0.1,0.1,0.4,0.2,0.8,0.2c0.5,0,0.9,0,1.1-0.1c0.2-0.1,0.4-0.3,0.5-0.6c0.1-0.3,0.2-0.7,0.3-1.3l1-0.1l0.1,0.1
		c0,0.2-0.1,0.5-0.2,1.1c-0.1,0.6-0.2,1.2-0.2,1.8l-0.1,0.1c-0.3,0-0.8,0-1.6-0.1c-0.8,0-1.6-0.1-2.2-0.1c-0.5,0-1,0-1.4,0.1
		c-0.4,0-0.7,0.1-0.8,0.1L291.3,207.6z"/>
	<path class="st3" d="M303.1,208.3l0.1-0.7c0.5,0,0.8-0.1,0.9-0.2c0.1-0.1,0.2-0.2,0.2-0.3c0-0.1,0-0.3-0.1-0.5l-0.3-1.1
		c-0.2,0-0.7,0-1.3,0c-0.4,0-0.8,0-1.4,0.1l-0.4,1.1c-0.1,0.2-0.1,0.4-0.1,0.4c0,0.2,0.1,0.3,0.2,0.4c0.1,0.1,0.3,0.1,0.6,0.1h0.6
		l0.1,0.1l-0.1,0.8c-0.1,0-0.4,0-0.8-0.1c-0.4,0-0.8,0-1.2,0s-0.7,0-1,0c-0.3,0-0.5,0-0.6,0l0.1-0.8c0.2,0,0.4-0.1,0.6-0.2
		c0.1-0.1,0.3-0.4,0.4-0.7l2.6-6.7l1.8-0.2l0.2,0.1c0.1,0.5,0.4,1.5,0.9,3.1c0.4,1.5,0.8,2.8,1.2,3.8c0.1,0.3,0.2,0.6,0.4,0.7
		c0.2,0.1,0.4,0.2,0.8,0.2l0.1,0.1l-0.1,0.7c-0.1,0-0.3,0-0.7,0c-0.3,0-0.7,0-1,0c-0.5,0-0.9,0-1.4,0S303.3,208.4,303.1,208.3
		L303.1,208.3z M302.5,204.5c0.4,0,0.8,0,1.1-0.1l-0.9-3.1h-0.2l-1.1,3.1H302.5z"/>
	<path class="st3" d="M309,205.4c-0.5-1.6-0.9-2.9-1.3-4c-0.1-0.3-0.2-0.5-0.4-0.6s-0.4-0.2-0.7-0.2l-0.1-0.1l0.1-0.7
		c0.1,0,0.4,0,0.7,0c0.3,0,0.7,0,1,0c0.4,0,0.8,0,1.3-0.1c0.5,0,0.8-0.1,1-0.1l0.1,0.1l-0.1,0.7c-0.3,0-0.6,0.1-0.7,0.1
		s-0.3,0.1-0.3,0.1c-0.1,0.1-0.1,0.2-0.1,0.3c0,0.2,0.2,1,0.6,2.5c0.4,1.5,0.7,2.5,0.8,3.1h0.2c0.3-0.6,0.7-1.7,1.2-3.2
		c0.5-1.5,0.8-2.3,0.8-2.5c0-0.2-0.1-0.3-0.2-0.3c-0.1-0.1-0.3-0.1-0.6-0.1h-0.6l-0.1-0.1l0.1-0.8c0.1,0,0.4,0,0.8,0.1
		c0.4,0,0.8,0,1.2,0s0.7,0,1,0c0.3,0,0.5,0,0.6,0l-0.1,0.8c-0.2,0-0.4,0.1-0.5,0.2s-0.2,0.3-0.3,0.5l-2.7,7l-1.9,0.3
		C309.7,208,309.4,207,309,205.4z"/>
	<path class="st3" d="M323.2,201.2c0-0.2,0-0.3-0.1-0.4c-0.1-0.1-0.2-0.1-0.3-0.1h-0.5l0-0.1l0.1-0.8c0.1,0,0.3,0,0.7,0s0.6,0,1,0
		c0.3,0,0.6,0,0.9,0c0.3,0,0.6,0,0.7-0.1l-0.1,0.8c-0.3,0-0.6,0.1-0.7,0.3c-0.1,0.1-0.2,0.3-0.2,0.6l-0.2,7.1l-1.1,0.2
		c-1-1.4-2-2.8-3-4.2c-1-1.4-1.5-2-1.5-2h-0.1l0,4.4c0,0.2,0,0.4,0.1,0.5c0.1,0.1,0.2,0.1,0.4,0.1l0.6,0l0.1,0.1l-0.2,0.8
		c-0.1,0-0.4,0-0.7,0c-0.3,0-0.7,0-1,0c-0.3,0-0.6,0-0.9,0c-0.3,0-0.6,0-0.7,0.1l0.1-0.8c0.3,0,0.5-0.1,0.6-0.2
		c0.1-0.1,0.2-0.3,0.2-0.6l0.2-5.4c0-0.3-0.1-0.5-0.2-0.6c-0.2-0.1-0.5-0.2-0.9-0.2l-0.1-0.1l0.1-0.7c0.1,0,0.3,0,0.6,0
		c0.3,0,0.6,0,0.9,0c0.3,0,0.5,0,0.8,0s0.4,0,0.5,0c0.8,1.2,1.6,2.4,2.4,3.5c0.8,1.1,1.3,1.8,1.6,2.2h0.1L323.2,201.2z M319.6,197.5
		c-0.5-0.6-1-1.1-1.5-1.6l0.4-0.5l0.2,0c0.7,0.6,1.4,1.1,2.1,1.6c0,0,0.2-0.1,0.4-0.3c0.1-0.1,0.3-0.2,0.7-0.5s0.7-0.5,1.1-0.8
		l0.2,0l0.4,0.5c-0.5,0.5-1,1-1.5,1.6c-0.5,0.6-0.9,0.9-1,1.1h-0.3C320.4,198.5,320.1,198.1,319.6,197.5z"/>
	<path class="st3" d="M328.5,207.9c-0.6-0.3-1.1-0.8-1.4-1.4s-0.5-1.4-0.5-2.2c0-0.9,0.2-1.7,0.6-2.4c0.4-0.7,0.9-1.2,1.6-1.6
		c0.7-0.4,1.5-0.6,2.4-0.6c1.2,0,2.2,0.4,2.9,1.1c0.7,0.7,1.1,1.7,1.1,3c0,0.9-0.2,1.7-0.6,2.4c-0.4,0.7-0.9,1.3-1.6,1.7
		c-0.7,0.4-1.5,0.6-2.4,0.6C329.8,208.4,329.1,208.3,328.5,207.9z M332.7,206.6c0.4-0.5,0.6-1.3,0.6-2.2c0-1.1-0.2-2-0.7-2.7
		s-1.1-1-1.9-1c-0.7,0-1.3,0.3-1.7,0.8c-0.4,0.5-0.6,1.3-0.6,2.2c0,1.1,0.2,2,0.7,2.7c0.4,0.6,1,1,1.8,1
		C331.7,207.4,332.3,207.1,332.7,206.6z"/>
	<path class="st3" d="M337.8,205.4c-0.5-1.6-0.9-2.9-1.3-4c-0.1-0.3-0.2-0.5-0.4-0.6s-0.4-0.2-0.7-0.2l-0.1-0.1l0.1-0.7
		c0.1,0,0.4,0,0.7,0c0.3,0,0.7,0,1,0c0.4,0,0.8,0,1.3-0.1c0.5,0,0.8-0.1,1-0.1l0.1,0.1l-0.1,0.7c-0.3,0-0.6,0.1-0.7,0.1
		s-0.3,0.1-0.3,0.1c-0.1,0.1-0.1,0.2-0.1,0.3c0,0.2,0.2,1,0.6,2.5c0.4,1.5,0.7,2.5,0.8,3.1h0.2c0.3-0.6,0.7-1.7,1.2-3.2
		c0.5-1.5,0.8-2.3,0.8-2.5c0-0.2-0.1-0.3-0.2-0.3c-0.1-0.1-0.3-0.1-0.6-0.1h-0.6l-0.1-0.1l0.1-0.8c0.1,0,0.4,0,0.8,0.1
		c0.4,0,0.8,0,1.2,0s0.7,0,1,0c0.3,0,0.5,0,0.6,0l-0.1,0.8c-0.2,0-0.4,0.1-0.5,0.2s-0.2,0.3-0.3,0.5l-2.7,7l-1.9,0.3
		C338.6,208,338.3,207,337.8,205.4z"/>
</g>
<g>
	<path class="st3" d="M261.5,287c-0.5,0.1-0.8,0.1-0.9,0.1l0.1-0.9c0.5-0.1,0.9-0.2,1-0.4c0.2-0.2,0.3-0.5,0.3-1l0-6.9
		c0-0.4,0-0.6-0.1-0.7c-0.1-0.1-0.2-0.2-0.5-0.2c-0.1,0-0.2,0-0.3,0c-0.1,0-0.2,0-0.2,0l-0.1-0.1l0.1-0.9c0.2,0,0.4,0,0.9,0
		c0.4,0,0.8,0,1.2,0c0.4,0,0.8,0,1.3,0s0.8,0,1-0.1c1.1,0,2,0.2,2.6,0.7s0.9,1.1,0.9,1.9c0,0.6-0.2,1.1-0.5,1.5s-0.8,0.8-1.4,1.1
		c0.8,0.2,1.4,0.5,1.8,0.9s0.7,1,0.7,1.6c0,0.6-0.2,1.2-0.5,1.7c-0.4,0.5-0.9,0.9-1.5,1.2c-0.6,0.3-1.3,0.4-2.1,0.4
		c-0.2,0-0.4,0-0.6,0c-0.2,0-0.4,0-0.5-0.1c-0.7-0.1-1.2-0.1-1.3-0.1C262.4,286.9,262,286.9,261.5,287z M263.6,284.9
		c0,0.4,0.1,0.7,0.4,0.8c0.3,0.2,0.7,0.3,1.4,0.3c0.6,0,1.1-0.2,1.5-0.5c0.4-0.3,0.5-0.8,0.5-1.4c0-0.5-0.2-1-0.5-1.3
		s-0.9-0.6-1.5-0.7l-1.7,0L263.6,284.9z M264.7,280.9c0.4,0,0.7,0.1,0.8,0.1c0,0,0.1,0,0.4-0.2c0.3-0.2,0.5-0.4,0.7-0.7
		c0.2-0.3,0.3-0.7,0.3-1.2c0-0.7-0.2-1.1-0.7-1.5c-0.4-0.3-1.1-0.5-2.1-0.5c-0.1,0-0.2,0-0.2,0.1c0,0.1-0.1,0.2-0.1,0.3
		c-0.1,1.1-0.1,2.2-0.1,3.5C263.9,280.8,264.2,280.9,264.7,280.9z"/>
	<path class="st3" d="M271.6,284.2v-4.3c0-0.3,0-0.5-0.1-0.6c-0.1-0.1-0.2-0.1-0.4-0.1l-0.4,0l0-0.1l0.1-0.8c0.1,0,0.4,0,0.7,0
		c0.4,0,0.7,0,1.1,0c0.2,0,0.5,0,0.9,0s0.6,0,0.7-0.1l-0.1,0.8c-0.3,0-0.5,0.1-0.6,0.2c-0.1,0.1-0.2,0.3-0.2,0.5l-0.1,3.9
		c0,0.7,0.2,1.3,0.5,1.6c0.3,0.4,0.8,0.6,1.4,0.6c1.3,0,1.9-0.6,1.9-1.9c0-0.7,0-1.5,0-2.4c0-0.9,0-1.5,0-1.8c0-0.3,0-0.5-0.1-0.6
		s-0.2-0.1-0.4-0.1l-0.5,0l0-0.1l0.1-0.8c0.1,0,0.3,0,0.7,0c0.3,0,0.6,0,1,0c0.3,0,0.6,0,0.9,0c0.3,0,0.5,0,0.6-0.1l-0.1,0.8
		c-0.4,0.1-0.6,0.1-0.7,0.2c-0.1,0.1-0.2,0.2-0.2,0.5v4.2c0,1-0.3,1.7-0.9,2.2c-0.6,0.5-1.5,0.8-2.6,0.8
		C272.7,287.1,271.6,286.1,271.6,284.2z"/>
	<path class="st3" d="M283.5,287c-0.5,0-0.8-0.1-1.2-0.1c-0.3,0-0.6,0-1,0.1s-0.6,0.1-0.7,0.1l0.1-0.8c0.4-0.1,0.7-0.2,0.8-0.3
		c0.1-0.2,0.2-0.4,0.2-0.8v-5.2c0-0.3,0-0.5-0.1-0.6c-0.1-0.1-0.2-0.2-0.4-0.2c-0.1,0-0.2,0-0.3,0s-0.2,0-0.2,0l-0.1-0.1l0.1-0.7
		c0.1,0,0.4,0,0.7,0c0.3,0,0.7,0,1,0c0.4,0,0.8,0,1.3,0c0.4,0,0.7,0,0.9,0c1.4,0,2.5,0.4,3.3,1.1c0.8,0.7,1.2,1.7,1.2,2.9
		c0,0.9-0.2,1.7-0.6,2.4s-1,1.3-1.7,1.7c-0.7,0.4-1.6,0.6-2.5,0.6C284.2,287,283.9,287,283.5,287z M283.5,279.5
		c-0.1,0-0.1,0.1-0.1,0.3c-0.1,2.5-0.2,4.3-0.2,5.3c0,0.4,0.1,0.7,0.3,0.8c0.2,0.1,0.5,0.2,1.1,0.2c0.9,0,1.5-0.3,2-0.9
		c0.5-0.6,0.7-1.4,0.7-2.5c0-1.1-0.3-2-0.9-2.5s-1.4-0.8-2.6-0.8C283.7,279.4,283.6,279.4,283.5,279.5z"/>
	<path class="st3" d="M290.7,286.2c0.4-0.1,0.7-0.2,0.8-0.3c0.1-0.1,0.2-0.4,0.2-0.8l0-5.2c0-0.3,0-0.5-0.1-0.6
		c-0.1-0.1-0.2-0.1-0.4-0.1l-0.5,0l-0.1-0.1l0.1-0.7c0.2,0,0.4,0,0.6,0l1.3,0c0.3,0,0.6,0,1,0s0.7,0,0.8-0.1l-0.1,0.8
		c-0.4,0-0.6,0.1-0.7,0.2s-0.2,0.3-0.2,0.5c-0.1,2.2-0.2,4-0.2,5.3c0,0.4,0,0.6,0.1,0.7c0.1,0.1,0.2,0.2,0.5,0.2c0.2,0,0.3,0,0.4,0
		c0.1,0,0.2,0,0.2,0l0.1,0.1l-0.1,0.8c-0.1,0-0.4,0-0.8,0c-0.4,0-0.8,0-1.2,0c-0.3,0-0.7,0-1.1,0.1s-0.7,0.1-0.8,0.1L290.7,286.2z"
		/>
	<path class="st3" d="M297.4,287c-0.4-0.1-0.6-0.1-0.8-0.2c-0.2-0.1-0.3-0.1-0.4-0.2l-0.1-0.2c0-0.1,0-0.2,0.1-0.4
		c0-0.2,0.1-0.5,0.1-0.8c0-0.4,0.1-0.7,0.1-1l1-0.1c0,0.5,0,0.9,0.1,1.2c0.1,0.3,0.3,0.5,0.5,0.6c0.2,0.1,0.6,0.2,1,0.2
		c0.5,0,0.9-0.1,1.2-0.3c0.3-0.2,0.4-0.5,0.4-0.8c0-0.2-0.1-0.5-0.3-0.6c-0.2-0.2-0.4-0.3-0.6-0.5c-0.2-0.1-0.6-0.3-1.2-0.6
		c-0.7-0.3-1.3-0.7-1.6-1c-0.4-0.3-0.6-0.8-0.6-1.4c0-0.5,0.2-0.9,0.5-1.3c0.3-0.4,0.7-0.7,1.3-0.9c0.5-0.2,1.2-0.3,1.8-0.3
		c0.4,0,0.8,0,1.1,0.1c0.3,0,0.6,0.1,0.8,0.1c0.2,0.1,0.3,0.1,0.4,0.1l0.1,0.2c0,0.1-0.1,0.4-0.2,0.8c-0.1,0.4-0.1,0.9-0.2,1.4
		l-0.9,0.1l-0.1-0.1c0,0,0-0.1,0-0.2c0-0.1,0-0.2,0-0.3c0-0.4-0.1-0.7-0.3-0.9c-0.2-0.2-0.6-0.3-1.1-0.3c-0.4,0-0.8,0.1-1.1,0.3
		s-0.4,0.4-0.4,0.7c0,0.3,0.2,0.6,0.5,0.8c0.3,0.2,0.8,0.5,1.4,0.8c0.5,0.2,1,0.5,1.3,0.7c0.3,0.2,0.6,0.4,0.9,0.7
		c0.2,0.3,0.4,0.6,0.4,1.1c0,0.5-0.2,1-0.5,1.4c-0.3,0.4-0.8,0.7-1.3,0.9c-0.6,0.2-1.2,0.3-2,0.3C298.1,287.1,297.7,287,297.4,287z"
		/>
	<path class="st3" d="M304.1,286.2c0.4,0,0.6-0.2,0.7-0.3c0.1-0.2,0.2-0.4,0.2-0.8l0-5.2c0-0.3,0-0.5-0.1-0.6
		c-0.1-0.1-0.2-0.1-0.4-0.1l-0.4,0l-0.1-0.1l0.1-0.7c0.2,0,0.4,0,0.6,0l1.2,0c0.2,0,0.6,0,1.1,0s0.8,0,0.9-0.1l-0.1,0.9
		c-0.3,0-0.5,0.1-0.7,0.2c-0.1,0.1-0.2,0.2-0.3,0.3c0,0.1-0.1,0.3-0.1,0.6c-0.1,1.4-0.2,3.1-0.2,4.9c0,0.4,0.1,0.6,0.2,0.7
		c0.1,0.1,0.4,0.2,0.8,0.2c0.5,0,0.8,0,1.1-0.1c0.2-0.1,0.4-0.3,0.5-0.6c0.1-0.3,0.2-0.7,0.3-1.3l1-0.1l0.1,0.1
		c0,0.2-0.1,0.5-0.2,1.1s-0.2,1.2-0.2,1.8l-0.1,0.1c-0.3,0-0.8,0-1.6-0.1c-0.8,0-1.6-0.1-2.2-0.1c-0.5,0-0.9,0-1.4,0.1
		s-0.7,0.1-0.8,0.1L304.1,286.2z"/>
	<path class="st3" d="M315.9,286.9l0.1-0.7c0.5,0,0.8-0.1,0.9-0.2c0.1-0.1,0.2-0.2,0.2-0.3c0-0.1,0-0.3-0.1-0.5l-0.3-1.1
		c-0.2,0-0.7,0-1.3,0c-0.4,0-0.8,0-1.4,0.1l-0.4,1.1c-0.1,0.2-0.1,0.4-0.1,0.4c0,0.2,0.1,0.3,0.2,0.4c0.1,0.1,0.3,0.1,0.6,0.1h0.6
		l0.1,0.1l-0.1,0.8c-0.1,0-0.4,0-0.8-0.1c-0.4,0-0.8,0-1.2,0s-0.7,0-1,0c-0.3,0-0.5,0-0.6,0l0.1-0.8c0.2,0,0.4-0.1,0.6-0.2
		c0.1-0.1,0.3-0.4,0.4-0.7l2.6-6.7l1.8-0.2l0.2,0.1c0.1,0.5,0.4,1.5,0.9,3.1c0.4,1.5,0.8,2.8,1.2,3.8c0.1,0.3,0.2,0.6,0.4,0.7
		c0.2,0.1,0.4,0.2,0.8,0.2l0.1,0.1l-0.1,0.7c-0.1,0-0.3,0-0.7,0c-0.3,0-0.7,0-1,0c-0.5,0-0.9,0-1.4,0S316.1,287,315.9,286.9
		L315.9,286.9z M315.3,283.2c0.4,0,0.8,0,1.1-0.1l-0.9-3.1h-0.2l-1.1,3.1H315.3z"/>
	<path class="st3" d="M321.8,284.1c-0.5-1.6-0.9-2.9-1.3-4c-0.1-0.3-0.2-0.5-0.4-0.6c-0.2-0.1-0.4-0.2-0.7-0.2l-0.1-0.1l0.1-0.7
		c0.1,0,0.4,0,0.7,0c0.3,0,0.7,0,1,0c0.4,0,0.8,0,1.3-0.1c0.5,0,0.8-0.1,1-0.1l0.1,0.1l-0.1,0.7c-0.3,0-0.6,0.1-0.7,0.1
		c-0.2,0-0.3,0.1-0.3,0.1s-0.1,0.2-0.1,0.3c0,0.2,0.2,1,0.6,2.5c0.4,1.5,0.7,2.5,0.8,3.1h0.2c0.3-0.6,0.7-1.7,1.2-3.2
		s0.8-2.3,0.8-2.5c0-0.2-0.1-0.3-0.2-0.3c-0.1-0.1-0.3-0.1-0.6-0.1h-0.6l-0.1-0.1l0.1-0.8c0.1,0,0.4,0,0.8,0.1s0.8,0,1.2,0
		s0.7,0,1,0c0.3,0,0.5,0,0.6,0l-0.1,0.8c-0.2,0-0.4,0.1-0.5,0.2c-0.1,0.1-0.2,0.3-0.3,0.5l-2.7,7l-1.9,0.3
		C322.5,286.6,322.2,285.6,321.8,284.1z"/>
</g>
<circle class="st3" cx="311.2" cy="228.4" r="4.9"/>
<circle class="st3" cx="298.9" cy="260.2" r="4.9"/>
<path class="st4" d="M-127.8,255.3"/>
</svg>
