<?xml version="1.0" encoding="utf-8"?>
<!-- Generator: Adobe Illustrator 24.1.2, SVG Export Plug-In . SVG Version: 6.00 Build 0)  -->
<svg version="1.1" id="Ebene_1" xmlns="http://www.w3.org/2000/svg" xmlns:xlink="http://www.w3.org/1999/xlink" x="0px" y="0px"
	 viewBox="0 0 399 400" style="enable-background:new 0 0 399 400;" xml:space="preserve">
<style type="text/css">
	.st0{fill:#F3D6AB;}
	.st1{fill:none;stroke:#F3D6AB;stroke-width:2;stroke-miterlimit:10;}
</style>
<g>
	<path class="st0" d="M135.9,188.4c2.2-0.2,3.7-0.5,4.6-0.8c0.9-0.4,1.5-1.1,1.8-2c0.3-1,0.4-2.6,0.4-4.9v-28.3
		c-3.3,0.1-5.5,0.3-6.7,0.6c-1.2,0.3-2.1,1-2.5,2.1c-0.5,1.1-0.9,3-1.2,5.9l-4.2,0.3c0.4-4,0.8-8.3,0.9-13l0.7-0.6l6.1,0.7h21
		l6.2-0.7l0.7,0.6c0.2,4.7,0.5,8.9,0.9,12.6l-4.2,0.3c-0.4-3-0.9-5.1-1.3-6.1c-0.5-1.1-1.2-1.8-2.4-2.1c-1.1-0.3-3.2-0.6-6.3-0.7
		c-0.2,2.9-0.4,7.6-0.6,13.9c-0.2,6.3-0.3,12.1-0.3,17.2c0,1.7,0.3,2.8,0.9,3.5c0.6,0.7,1.6,1,2.9,1c1.2,0,2.4-0.1,3.6-0.2l0.3,0.3
		l-0.6,3.8c-4.3-0.2-7.9-0.3-10.7-0.3c-3.1,0-6.5,0.1-10.1,0.3L135.9,188.4z"/>
	<path class="st0" d="M171,188.9c1.6-0.2,2.7-0.6,3.2-1.2c0.6-0.7,0.9-1.7,0.9-3.3l0.1-20.4c0-1.1-0.1-1.9-0.4-2.3
		c-0.2-0.4-0.8-0.6-1.5-0.6l-1.8,0.1l-0.3-0.3l0.5-3c0.6,0,1.8,0,3.6,0.1s3.7,0.1,5.8,0.1c7.8,0,13.4-0.2,16.8-0.6l0.3,0.4
		c-0.1,0.5-0.3,1.7-0.6,3.6c-0.3,1.8-0.5,3.8-0.7,5.9l-4.3,0.3c0-0.1,0-0.4,0.1-0.8c0-0.4,0.1-0.9,0.1-1.3c0-1.1-0.2-1.8-0.5-2.3
		c-0.3-0.4-1-0.8-2-0.9c-1-0.2-2.7-0.2-5-0.2c-1,0-1.8,0-2.2,0.1c-0.4,0.1-0.7,0.2-0.8,0.5c-0.1,0.2-0.2,0.6-0.2,1.2l-0.4,8.7
		l5.3,0.1c0.8,0,2-0.1,3.5-0.2c1.6-0.2,2.6-0.3,3.1-0.3l0.3,0.5l-0.8,4.1c-0.5,0-1.5,0-2.9-0.1c-1.4,0-2.9-0.1-4.5-0.1
		c-1.2,0-2.6,0.1-4.2,0.3c-0.1,2.9-0.1,5.6-0.1,8c0,1,0.1,1.7,0.2,2.1c0.2,0.4,0.5,0.7,1,0.8c0.5,0.1,1.3,0.2,2.6,0.2
		c2.6,0,4.5-0.1,5.6-0.4s2-0.8,2.5-1.6c0.5-0.8,0.9-2.2,1.2-4.1l3.9-0.3l0.4,0.4c-0.1,0.5-0.4,1.8-0.7,3.6c-0.3,1.9-0.6,3.9-0.8,5.9
		l-0.5,0.5c-1.2,0-3.7-0.1-7.5-0.2c-3.8-0.1-7-0.1-9.7-0.1c-2,0-3.8,0.1-5.6,0.2c-1.8,0.2-2.9,0.3-3.4,0.3L171,188.9z"/>
	<path class="st0" d="M212.1,188.7c1.8-0.1,3-0.4,3.7-0.7c0.7-0.3,1.2-0.8,1.5-1.5c0.2-0.7,0.3-1.9,0.3-3.5v-21.5
		c-2.3,0.1-3.9,0.3-4.8,0.5c-0.9,0.2-1.6,0.8-2,1.7c-0.4,0.9-0.8,2.4-1,4.7l-4,0.2c0.1-0.6,0.2-2.1,0.4-4.3c0.2-2.2,0.3-4.4,0.3-6.4
		l0.5-0.5l5.3,0.5h17.3l5.3-0.5l0.6,0.5c0,2.1,0.2,4.2,0.3,6.4c0.2,2.1,0.3,3.5,0.3,4.1l-4,0.2c-0.3-2.3-0.7-4-1.1-4.9
		c-0.4-0.9-1-1.5-1.9-1.7c-0.9-0.2-2.4-0.4-4.5-0.5c-0.2,2.3-0.3,5.7-0.5,10.4c-0.2,4.6-0.2,8.9-0.2,12.9c0,1.3,0.2,2.2,0.7,2.8
		c0.5,0.5,1.3,0.8,2.4,0.8c0.8,0,1.4,0,1.9-0.1c0.5,0,0.8-0.1,1-0.1l0.3,0.3l-0.5,3.3c-0.7,0-1.9,0-3.8-0.1
		c-1.8-0.1-3.6-0.1-5.4-0.1c-1.3,0-2.9,0-4.9,0.1c-2,0.1-3.3,0.2-3.9,0.2L212.1,188.7z"/>
	<path class="st0" d="M243.2,188.9c1.6-0.2,2.7-0.6,3.2-1.2c0.6-0.7,0.9-1.7,0.9-3.3l0.1-20.4c0-1.1-0.1-1.9-0.4-2.3
		c-0.2-0.4-0.8-0.6-1.5-0.6l-1.8,0.1l-0.3-0.3l0.5-3c0.6,0,1.8,0,3.6,0.1s3.7,0.1,5.8,0.1c7.8,0,13.4-0.2,16.8-0.6l0.3,0.4
		c-0.1,0.5-0.3,1.7-0.6,3.6c-0.3,1.8-0.5,3.8-0.7,5.9l-4.3,0.3c0-0.1,0-0.4,0.1-0.8c0-0.4,0.1-0.9,0.1-1.3c0-1.1-0.2-1.8-0.5-2.3
		c-0.3-0.4-1-0.8-2-0.9c-1-0.2-2.7-0.2-5-0.2c-1,0-1.8,0-2.2,0.1c-0.4,0.1-0.7,0.2-0.8,0.5c-0.1,0.2-0.2,0.6-0.2,1.2l-0.4,8.7
		l5.3,0.1c0.8,0,2-0.1,3.5-0.2c1.6-0.2,2.6-0.3,3.1-0.3l0.3,0.5l-0.8,4.1c-0.5,0-1.5,0-2.9-0.1c-1.4,0-2.9-0.1-4.5-0.1
		c-1.2,0-2.6,0.1-4.2,0.3c-0.1,2.9-0.1,5.6-0.1,8c0,1,0.1,1.7,0.2,2.1c0.2,0.4,0.5,0.7,1,0.8c0.5,0.1,1.3,0.2,2.6,0.2
		c2.6,0,4.5-0.1,5.6-0.4s2-0.8,2.5-1.6s0.9-2.2,1.2-4.1l3.9-0.3l0.4,0.4c-0.1,0.5-0.4,1.8-0.7,3.6c-0.3,1.9-0.6,3.9-0.8,5.9L269,192
		c-1.2,0-3.7-0.1-7.5-0.2c-3.8-0.1-7-0.1-9.7-0.1c-2,0-3.8,0.1-5.6,0.2c-1.8,0.2-2.9,0.3-3.4,0.3L243.2,188.9z"/>
</g>
<g>
	<path class="st0" d="M169.7,221.7v0.4l-5.8,6.2l-1.3,0.5l-5.3-0.7c-1.1,3.2-2.8,6.2-5,8.8c-2.3,2.6-4.9,4.7-8,6.1s-6.1,2.2-9.3,2.2
		c-3.2,0-6.1-0.7-8.5-2c-2.4-1.3-4.3-3.3-5.6-5.7c-1.3-2.5-2-5.4-2-8.6c0-3.3,0.7-6.4,2.2-9.3c1.5-2.9,3.4-5.2,5.8-6.8
		c2.4-1.7,4.8-2.5,7.3-2.5c1.9,0,3.4,0.4,4.5,1.3c1.1,0.9,1.6,2.1,1.6,3.6c0,0.5-0.1,1-0.2,1.4c-0.1,0.4-0.3,0.8-0.4,1
		c-0.2,0.3-0.3,0.4-0.3,0.5l0.3,0.2c4.4-3.1,7.7-6.3,10.1-9.5c2.4-3.2,3.9-6.5,4.5-10.1l0.6-0.5h1.7c0.1,0.2,0.3,0.8,0.6,1.6
		c0.3,0.9,0.6,1.8,0.9,2.8c0.3,1,0.4,1.8,0.4,2.3c0,0.8-1,2.3-3,4.5c-2.8,3.3-6.5,6.7-11.2,10.3c-4.7,3.6-11.1,7.6-19.4,12.2
		c0.8,2.6,2.2,4.6,4.3,6c2.1,1.4,4.7,2.1,7.9,2.1c3.8,0,7-1.1,9.6-3.3c2.6-2.2,4.4-5.3,5.4-9.2l-3.6-0.5c-0.4,0-1,0.3-1.7,0.8
		c-0.7,0.5-1.4,1.1-2,1.7c-0.6,0.6-1,1-1.2,1.1h-0.4l-1.8-2.2v-0.3l6.1-6.2l1.1-0.3c0.9,0,3.2,0.3,7,0.8c3.7,0.5,6,0.8,6.8,0.8
		c0.4,0,0.9-0.3,1.7-0.8c0.8-0.5,1.5-1.1,2.1-1.7c0.7-0.6,1.1-1,1.2-1.2h0.5L169.7,221.7z M124.4,228.5c2.8-1.7,4.9-3,6.3-4.1
		c1.4-1.1,2.4-2.1,3-3c0.6-0.9,0.8-1.9,0.8-3c0-0.9-0.2-1.6-0.7-2.1c-0.5-0.5-1.1-0.7-2-0.7c-1.3,0-2.5,0.5-3.7,1.4
		c-1.1,0.9-2.1,2.2-2.8,3.8c-0.7,1.6-1,3.5-1,5.5L124.4,228.5z"/>
</g>
<g>
	<path class="st0" d="M183,251.9l0.2-0.6c1.8-1.2,3.2-2.4,4.1-3.7c1-1.2,1.7-2.7,2.1-4.5c0.4-1.7,0.6-4,0.6-6.8v-27.9
		c0-1.5-0.2-2.5-0.5-2.9c-0.3-0.4-1-0.7-2-0.7c-0.5,0-1.1,0-1.7,0.1c-0.6,0.1-1,0.1-1.2,0.2l-0.3-0.4l0.5-3.4h7.8
		c1.5,0,3.2-0.1,5.1-0.2c1.9-0.2,3.1-0.3,3.7-0.4l-0.3,3.7c-1.1,0.2-1.9,0.4-2.4,0.6c-0.5,0.2-0.8,0.6-1,1c-0.2,0.5-0.3,1.2-0.3,2.2
		c-0.2,2.9-0.4,7.4-0.5,13.5c-0.2,6-0.3,11.2-0.3,15.3c0,4.5-1,8.2-2.9,11c-1.9,2.8-5,4.9-9.1,6.4L183,251.9z"/>
	<path class="st0" d="M209.4,241.6c1.6-0.2,2.7-0.6,3.2-1.2c0.6-0.7,0.9-1.7,0.9-3.3l0.1-20.4c0-1.1-0.1-1.9-0.4-2.3
		c-0.2-0.4-0.8-0.6-1.5-0.6l-1.8,0.1l-0.3-0.3l0.5-3c0.6,0,1.8,0,3.6,0.1c1.8,0,3.7,0.1,5.8,0.1c7.8,0,13.4-0.2,16.8-0.6l0.3,0.4
		c-0.1,0.5-0.3,1.7-0.6,3.6c-0.3,1.8-0.5,3.8-0.7,5.9l-4.3,0.3c0-0.1,0-0.4,0.1-0.8c0-0.4,0.1-0.9,0.1-1.3c0-1.1-0.2-1.8-0.5-2.3
		c-0.3-0.4-1-0.8-2-0.9c-1-0.2-2.7-0.2-5-0.2c-1,0-1.8,0-2.2,0.1c-0.4,0.1-0.7,0.2-0.8,0.5c-0.1,0.2-0.2,0.6-0.2,1.2l-0.4,8.7
		l5.3,0.1c0.8,0,2-0.1,3.5-0.2c1.6-0.2,2.6-0.3,3.1-0.3l0.3,0.5l-0.8,4.1c-0.5,0-1.4,0-2.9-0.1c-1.4,0-2.9-0.1-4.5-0.1
		c-1.2,0-2.6,0.1-4.2,0.3c-0.1,2.9-0.1,5.6-0.1,8c0,1,0.1,1.7,0.2,2.1c0.2,0.4,0.5,0.7,1,0.8c0.5,0.1,1.3,0.2,2.6,0.2
		c2.6,0,4.5-0.1,5.6-0.4s2-0.8,2.5-1.6c0.5-0.8,0.9-2.2,1.2-4.1l3.9-0.3l0.4,0.4c-0.1,0.5-0.4,1.8-0.7,3.6c-0.3,1.9-0.6,3.9-0.8,5.9
		l-0.5,0.5c-1.2,0-3.7-0.1-7.5-0.2c-3.8-0.1-7-0.1-9.7-0.1c-2,0-3.8,0.1-5.6,0.2c-1.8,0.2-2.9,0.3-3.4,0.3L209.4,241.6z"/>
	<path class="st0" d="M273.4,216.1c0-0.8-0.1-1.4-0.4-1.7c-0.3-0.3-0.8-0.5-1.4-0.5h-2l-0.1-0.3l0.4-3c0.5,0,1.4,0.1,2.7,0.1
		c1.3,0,2.6,0.1,3.9,0.1c1.1,0,2.3,0,3.6-0.1c1.4-0.1,2.2-0.2,2.6-0.2l-0.3,3.2c-1.3,0.2-2.2,0.5-2.8,1c-0.5,0.5-0.8,1.3-0.9,2.4
		l-0.7,28.3l-4.5,0.7c-3.9-5.7-7.8-11.3-11.7-16.7c-3.9-5.4-5.9-8-5.9-8h-0.5l-0.1,17.6c0,0.9,0.1,1.5,0.4,1.9s0.7,0.5,1.4,0.5
		l2.5-0.1l0.3,0.2l-0.6,3.2c-0.5,0-1.4-0.1-2.7-0.1c-1.3,0-2.7-0.1-4-0.1c-1.1,0-2.3,0.1-3.7,0.2c-1.3,0.1-2.2,0.2-2.6,0.2l0.4-3.2
		c1.1-0.1,1.9-0.4,2.5-0.9c0.5-0.5,0.8-1.3,0.8-2.4l0.7-21.3c0-1.1-0.3-1.9-0.9-2.3c-0.6-0.4-1.8-0.8-3.6-1l-0.4-0.4l0.5-2.8
		c0.4,0,1.2,0.1,2.5,0.2c1.3,0.1,2.4,0.1,3.4,0.1c1.1,0,2.1,0,3-0.1c0.9,0,1.5-0.1,1.8-0.1c3.2,4.9,6.5,9.6,9.7,14
		c3.2,4.5,5.3,7.3,6.3,8.6h0.5L273.4,216.1z"/>
</g>
<circle class="st1" cx="199.5" cy="200.2" r="118.3"/>
</svg>
