<?xml version="1.0" encoding="UTF-8" standalone="no"?>
<svg
   xmlns:dc="http://purl.org/dc/elements/1.1/"
   xmlns:cc="http://creativecommons.org/ns#"
   xmlns:rdf="http://www.w3.org/1999/02/22-rdf-syntax-ns#"
   xmlns:svg="http://www.w3.org/2000/svg"
   xmlns="http://www.w3.org/2000/svg"
   width="128.05685mm"
   height="128.05034mm"
   viewBox="0 0 453.74476 453.72167"
   id="svg4144"
   version="1.1">
  <metadata
     id="metadata9">
    <rdf:RDF>
      <cc:Work
         rdf:about="">
        <dc:format>image/svg+xml</dc:format>
        <dc:type
           rdf:resource="http://purl.org/dc/dcmitype/StillImage" />
        <dc:title></dc:title>
      </cc:Work>
    </rdf:RDF>
  </metadata>
  <defs
     id="defs7" />
  <g
     id="layer1"
     transform="translate(-107.42008,-202.61385)">
    <path
       style="fill:#ffffff"
       d="m 260.78567,655.43161 c -14.29996,-0.41525 -31.62496,-1.48164 -38.49996,-2.36974 -32.9541,-4.25699 -56.62316,-15.08131 -76.54932,-35.00747 -19.78382,-19.78382 -30.73351,-43.58626 -34.93019,-75.93122 -4.52188,-34.85142 -4.51236,-190.6606 0.0138,-225.2362 4.2856,-32.73825 15.21458,-56.50656 35.00227,-76.12281 19.91723,-19.74465 43.31249,-30.46616 75.74354,-34.71149 35.02666,-4.58511 190.41326,-4.58511 225.43986,0 32.5398,4.25956 56.0867,15.07953 75.8698,34.86266 19.7942,19.79413 30.6027,43.32673 34.869,75.91763 4.5534,34.78481 4.5629,190.28048 0.014,225.34422 -4.1866,32.2682 -15.2115,56.24637 -34.9261,75.961 -19.7597,19.75973 -43.3074,30.56241 -75.9283,34.83264 -23.6952,3.10183 -120.133,4.37689 -186.1181,2.46078 z m 132.5,-37.92688 c 52.4455,-1.17209 64.7071,-2.89864 82.3138,-11.59048 8.5577,-4.22471 11.7213,-6.44583 19.0249,-13.35743 13.8455,-13.10237 21.496,-28.9734 25.1683,-52.21154 4.0079,-25.36171 4.0079,-196.31869 0,-221.6804 -3.2113,-20.32107 -10.2404,-36.30806 -21.1399,-48.08049 -13.9521,-15.06956 -29.492,-22.78809 -53.5269,-26.5863 -25.3617,-4.00788 -196.31865,-4.00788 -221.68036,0 -19.30396,2.70827 -37.88421,11.51706 -49.49843,22.45525 -13.84538,13.10227 -21.4957,28.97267 -25.16852,52.21154 -3.98986,25.24485 -3.98986,196.43555 0,221.6804 1.88688,11.93879 4.85371,21.87611 9.09798,30.47352 4.22471,8.55778 6.44583,11.7213 13.35743,19.0249 13.32592,14.08173 29.0336,21.54768 53.19378,25.28331 17.88253,2.76498 99.87152,3.91948 168.85792,2.37772 z m -67,-72.66423 c -35.0079,-3.22433 -64.2457,-19.18677 -84.44777,-46.10446 -22.57906,-30.08486 -29.09897,-70.78044 -17.03085,-106.30203 13.61088,-40.06259 48.72502,-69.93616 90.47862,-76.9752 10.3497,-1.74479 29.7241,-1.54216 40.0711,0.41908 47.1313,8.93359 83.5899,45.38999 92.5619,92.55612 2.1281,11.18759 2.1281,30.95455 0,42.14214 -8.9228,46.90778 -45.8804,84.00084 -92.0619,92.39929 -8.2335,1.49732 -23.2682,2.44557 -29.5711,1.86506 z m 27.749,-40.41008 c 26.527,-6.74429 48.182,-28.5115 55.3893,-55.67636 1.5062,-5.67694 2.056,-10.82403 2.056,-19.24898 0,-30.2847 -15.8736,-55.85701 -43.1786,-69.56043 -10.8976,-5.46912 -20.5433,-7.63381 -34.0157,-7.63381 -13.4723,0 -23.118,2.16469 -34.0156,7.63381 -20.6243,10.35063 -35.3193,28.33574 -41.1078,50.31145 -2.4225,9.19694 -2.8742,25.6722 -0.9528,34.74898 6.8542,32.37837 33.3853,56.98737 66.2691,61.46811 8.2013,1.1175 20.458,0.27038 29.5561,-2.04277 z m 93.9686,-172.30119 c -11.8379,-4.41528 -18.6579,-15.09357 -17.4115,-27.26163 2.0702,-20.21091 25.61,-29.57948 42.3125,-16.83989 1.7744,1.35342 4.4424,4.94653 5.9288,7.9847 6.4768,13.23799 1.3902,28.30238 -11.872,35.16058 -4.2528,2.19917 -14.2705,2.70447 -18.9578,0.95624 z"
       id="path4705" />
  </g>
</svg>
