<?xml version="1.0" encoding="UTF-8" standalone="no"?>
<svg
   xmlns:dc="http://purl.org/dc/elements/1.1/"
   xmlns:cc="http://creativecommons.org/ns#"
   xmlns:rdf="http://www.w3.org/1999/02/22-rdf-syntax-ns#"
   xmlns:svg="http://www.w3.org/2000/svg"
   xmlns="http://www.w3.org/2000/svg"
   height="1792"
   viewBox="0 0 1482 1792"
   width="1482"
   id="svg2"
   version="1.1">
  <metadata
     id="metadata9">
    <rdf:RDF>
      <cc:Work
         rdf:about="">
        <dc:format>image/svg+xml</dc:format>
        <dc:type
           rdf:resource="http://purl.org/dc/dcmitype/StillImage" />
        <dc:title></dc:title>
      </cc:Work>
    </rdf:RDF>
  </metadata>
  <defs
     id="defs7" />
  <g
     id="g4140"
     transform="translate(-155,0)">
    <path
       style="fill:#ffffff"
       id="path4"
       d="m 1099,1244 0,211 q 0,67 -39,67 -23,0 -45,-22 l 0,-301 q 22,-22 45,-22 39,0 39,67 z m 338,1 0,46 -90,0 0,-46 q 0,-68 45,-68 45,0 45,68 z m -966,-218 107,0 0,-94 -312,0 0,94 105,0 0,569 100,0 0,-569 z m 288,569 89,0 0,-494 -89,0 0,378 q -30,42 -57,42 -18,0 -21,-21 -1,-3 -1,-35 l 0,-364 -89,0 0,391 q 0,49 8,73 12,37 58,37 48,0 102,-61 l 0,54 z m 429,-148 0,-197 q 0,-73 -9,-99 -17,-56 -71,-56 -50,0 -93,54 l 0,-217 -89,0 0,663 89,0 0,-48 q 45,55 93,55 54,0 71,-55 9,-27 9,-100 z m 338,-10 0,-13 -91,0 q 0,51 -2,61 -7,36 -40,36 -46,0 -46,-69 l 0,-87 179,0 0,-103 q 0,-79 -27,-116 -39,-51 -106,-51 -68,0 -107,51 -28,37 -28,116 l 0,173 q 0,79 29,116 39,51 108,51 72,0 108,-53 18,-27 21,-54 2,-9 2,-58 z M 918,525 918,315 q 0,-69 -43,-69 -43,0 -43,69 l 0,210 q 0,70 43,70 43,0 43,-70 z m 719,751 q 0,234 -26,350 -14,59 -58,99 -44,40 -102,46 -184,21 -555,21 -371,0 -555,-21 -58,-6 -102.5,-46 -44.5,-40 -57.5,-99 -26,-112 -26,-350 0,-234 26,-350 14,-59 58,-99 44,-40 103,-47 183,-20 554,-20 371,0 555,20 58,7 102.5,47 44.5,40 57.5,99 26,112 26,350 z M 639,0 741,0 620,399 l 0,271 -100,0 0,-271 Q 506,325 459,187 422,84 394,0 l 106,0 71,263 z m 370,333 0,175 q 0,81 -28,118 -37,51 -106,51 -67,0 -105,-51 -28,-38 -28,-118 l 0,-175 q 0,-80 28,-117 38,-51 105,-51 69,0 106,51 28,37 28,117 z m 335,-162 0,499 -91,0 0,-55 q -53,62 -103,62 -46,0 -59,-37 -8,-24 -8,-75 l 0,-394 91,0 0,367 q 0,33 1,35 3,22 21,22 27,0 57,-43 l 0,-381 91,0 z" />
  </g>
</svg>
